<?xml version='1.0' encoding='utf-8'?>
<svg xmlns="http://www.w3.org/2000/svg" enable-background="new 0 0 5000 3897.1445" version="1.1" viewBox="0 0 5e3 3897.1"> <path d="m4912.6 2509.1c-42.733-0.0693-56.126 19.317-72.488 38.433-46.351-0.5293-334.15-3.8157-380.47-4.3447-270.47-259.07-281.94-268.61-355.66-340.18-511.71 0.2439-485.44-0.427-569.2-3.6785v-38.946c163.41-4.2051 215.34-3.8472 733.81-3.8472 115.16 118.94 109.85 116.54 137.25 142.73h385.1l11.587 11.939c39.606 40.81 106.77 34.054 131.06-13.185 7.7314-15.037 9.9956-41.456 5.0674-59.128-5.7188-20.506-28.588-42.528-50.901-49.014-30.543-8.8792-62.349-0.5647-84.46 22.079l-11.3 11.572h-353.7c-85.812-89.699-102.27-106.64-131.16-138.36-696.1-3.1824-771.25-3.7173-771.68-3.9468-0.8569-0.4609 0.012-63.258 0.7864-124.22h583.49c15.95 17.213 17.567 21.847 55.905 21.847 58.924 0 54.45-21.083 59.94-40.916 1.4268-5.1531 22.765-4.2716 228.08-2.056 23.908 23.044 37.693 39.298 80.115 36.491 115.52-7.6437 106.25-160.21-4.8545-159.43-43.456 0.3071-58.943 21.152-79.269 46.125-148.43 0.2798-187.86-0.3165-187.81-1.8306 0.0518-1.5032 28.636-31.309 164.51-169.86 348.83 1.6852 350.85 0.6173 354.67 7.4939 10.601 19.123 33.902 31.35 62.792 32.946 79.7 4.4058 106.24-86.037 58.527-133.75-28.98-28.979-84.604-25.48-116.08 7.3033l-10.038 10.455h-381.66c-109.21 113.01-109.18 116.41-257.03 270.9-14.484 0-602.01 0.5808-608.13-1.7682-5.24-2.0109-4.6077-14.059-4.6077-91.446 193.66-0.458 203.87-0.6381 514.13 0.3783 76.874-80.717 181.1-190.53 299.72-312.06 91.01-93.242 105.12-106.57 114.67-108.34 14.349-2.6565 361.83-2.3379 377.68-2.3525 24.23 25.402 36.126 40.621 73.418 43.057 49.598 3.2397 85.58-27.515 85.58-73.149 0-77.312-87.718-105.56-141.12-56.256l-11.493 10.611h-420.08c-244.39 248.56-226.35 229.55-409.76 419.46h-483.03l1.7227-39.325 302.95-1.5447c34.24 17.322 34.53 19.022 61.038 19.022 18.895 0 25.979-1.321 36.546-6.8152 50.753-26.387 61.725-84.666 23.194-123.2-24.906-24.906-63.916-29.895-97.892-12.519-18.159 9.2871-35.135 28.272-37.975 42.471l-1.6602 8.3025h-287.65c-0.1863-27.664 1.6841-26.538-13.376-35.68-7.2546-4.4038-12.345-9.3746-11.312-11.046 1.033-1.6716 7.1123-5.1337 13.509-7.6931 13.375-5.3518 14.206-11.428 16.859-18.404l234.64-0.2883c225.96-239.31 355.09-373.73 453.02-477.43h568.34c6.1191 7.2726 12.706 16.359 28.332 25.545 12.171 7.155 16.307 7.9534 41.202 7.9534 31.022 0 39.201-2.9833 57.01-20.793 49.982-49.982 10.912-132.72-53.58-132.72-38.949 0-47.736 12.583-76.72 41.364h-596.22c-50.657 55.296-305.41 324.55-455.55 480.71-32.12-0.2402-149.55-1.1182-204.69-1.5303-0.7375-63.892-0.8257-71.525-1.564-135.45h188.28c74.154-81.116 460.91-502.28 570.14-617.54h602.21c-1.0117-48.024-0.6113-29.011-1.626-77.193l-243.94-1.521c-16.765-12.491-255.3-196.16-255.63-196.42-86.342-66.614-137.84-104.59-152.08-121.86-23.078-27.978-63.587-36.213-96.511-21.518-46.955 20.956-47.076 62.567-47.076 106.74-527.78 529.41-519.46 521.54-706.86 713.76h-36.715c-4.6704-261.54-4.0266-253.74-1.7271-337.78 345.96-340.81 342.77-339.21 353-336.71 36.247 8.8505 60.714 2.9452 83.914-20.254 38.824-38.822 24.379-98.078-22.539-122.74-22.786-11.977-49.868-13.164-73.063-1.5889-24.9 12.426-52.879 45.298-48.044 75.089 1.5188 9.3584-0.0125 11.508-29.525 41.448-56.865 57.688-243.41 235.03-338.02 331.14l-4.1592 371.4h-270.08v-204.8c430.89-432.7 302.58-301.2 787.21-734.52 46.108-0.134 48.206 0.9917 65.874-8.772 45.736-25.272 60.643-81.498 19.74-122.4-19.266-19.266-37.875-26.108-65.597-24.118-22.649 1.626-38.219 8.824-53.179 24.585-23.28 24.527-21.344 35.004-22.273 81.081-267.25 258.3-203.26 152.56-639.29 586.72l-165.31 164.6v237.62h-58.259v-247.82c264.8-270.42 176.77-181.57 489.37-497.42v-204.23l8.0105-4.2041c11.914-6.2527 28.942-25.016 34.238-37.728 6.052-14.526 6.0928-41.631 0.0845-56.064-11.831-28.421-44.295-48.871-77.362-48.732-43.703 0.1836-81.376 34.385-81.46 73.955-0.0825 38.624 17.573 52.652 40.752 75.283v173.95c-174.25 172.42-309.41 311.53-489.37 496.41v276.6h-55.346v-462.45c65.425-56.118 280.6-226.61 374.31-302.48 0.5391-62.699 1.002-116.5 1.5413-179.2l10.881-4.5417c25.543-10.661 41.91-29.929 47.478-55.893 11.97-55.814-49.997-104.9-109-86.341-54.108 17.019-73.947 84.661-36.687 125.08l11.505 12.482c-0.1399 51.228-0.2798 102.47-0.4197 153.73-26.773 21.143-49.778 39.311-76.551 60.454-271.93-286.09-226.16-216.37-225.15-274.81 0.6006-34.86-19.04-62.754-53.37-75.798-51.941-19.736-108.06 17.131-108.57 71.327-0.3994 42.456 36.079 77.545 80.614 77.545 11.353 0 13.238 1.6321 73.168 63.356 86.611 89.204 173.37 181.19 173.37 183.81 0 8.6436-237.08 194.14-237.4 194.39-0.2339 77.893-1.0884 362.69-1.4895 496.41h-55.313v-464.83c-58.728-44.117-303.09-261.38-358.29-310.44v-166.34l12.478-10.984c15.101-13.292 27.698-35.502 30.108-53.083 4.0239-29.357-14.499-62.112-43.641-77.175-19.57-10.114-51.694-10.927-71.769-1.8157-31.649 14.365-44.978 34.485-45.083 68.043-0.0576 18.629 1.1055 23.843 7.897 35.396 9.3589 15.92 25.09 28.622 34.273 36.706v201.48c79.904 72.102 286.15 246.72 357.95 313.38l1.7979 431.12c-17.829 0.5887-33.148 1.0946-50.976 1.6833v-287.94c-0.3042-0.2997-462.57-455.62-492.29-478.81v-179l15.293-10.058c17.682-11.629 32.962-34.587 35.854-53.872 3.1527-21.024-5.2092-43.167-23.032-60.99-19.571-19.571-37.682-26.102-67.088-24.195-78.483 5.0916-96.636 95.787-48.159 137.28l11.395 9.7534v209.86c221.03 208.57 405.07 392.95 495.2 482.51v252.32h-55.346v-230.92c-783.14-776.89-388.42-383.74-761.18-753.01 1.053-36.078 3.4695-52.284-22.87-80.972-59.165-64.438-163.62-6.6545-134.93 74.667 12.66 35.884 48.186 57.858 84.418 52.215l14.565-2.2683c79.503 76.432 546.91 537.75 747.18 740.65 0 201 1.1711 198.65-6.2295 200.59-8.1711 2.137-165.14 2.0981-174.37 2.1254-0.0503-96.855 0.314-107.84-3.8088-158.92-135.89-109.96-902.33-814.35-972.27-864.25l-49.899 49.01c36.306 34.54 380.79 340.39 381.1 340.67 57.376 50.573 216.52 198.97 505.05 456.07 69.816 62.211 66.16 57.53 65.645 84.045-0.5007 25.834-1.1497 65.549-1.5605 90.301h-386.46c-31.302-32.414-37.295-39.175-254.28-259.25-491.56-498.55-463.06-474.51-463.16-489.58-0.3922-55.184-51.883-90.428-107.84-73.812-19.878 5.9031-47.168 31.873-52.621 50.076-5.4976 18.349-15.819 22.612-269.3 216.23-85.112 65.014-87.844 66.995-107.16 81.528h-235.11v75.736h596.73c231.32 246.83 488.27 523.94 555.34 596.93 256.61 0.1761 318.97-0.3309 318.97 4.0439 0 5.4585-25.776 55.262-29.986 57.938-4.6417 2.9497-237.14 2.3186-247.19 2.3223-0.2996-0.2273-475.53-350.18-523.19-384.4-31.321-0.2212-532.26-3.759-563.47-3.9794-23.073-23.073-36.255-39.864-77.868-39.791-30.577 0.0536-64.195 24.09-72.51 51.842-16.619 55.469 24.926 106.07 83.624 101.86 34.377-2.468 45.343-16.091 62.598-35.755 60.784 0.0072 191.36 0.4292 545.09 1.4856 80.169 58.477 178.23 129.32 518.38 384.48 79.2 0 234.61-0.9482 234.61 2.9771 0 3.786-14.796 35.609-17.112 40.717h-268.87l-15.035-13.164c-71.563-62.658-166.6 4.7708-135.76 87.211 7.1113 19.006 28.058 39.53 45.757 44.833 34.609 10.369 75.443-3.5314 96.814-32.957l7.2823-10.027 233.33-0.1602c-9.6218 18.995-69.356 136.92-78.94 155.84l-401.21 1.4968c-113.43-114.27-140.31-141.28-413.56-416.06l-455.64-1.9906-13.815-12.161c-37.689-33.179-102.01-28.503-128.55 19.62-7.553 13.695-8.73 18.808-8.6716 37.691 0.0515 16.782 1.5479 24.644 6.4534 33.914 18.812 35.547 69.501 52.975 106.44 36.597 16.297-7.2258 35.783-27.026 47.779-38.468h416.43c247.47 249.18 253.9 255.66 410.08 413.64h397.56l-22.021 48.064c-96.014 3.0504-84.226 3.5316-468.98 4.3694-117.38-94.047-73.018-61.626-266.24-221.38h-362.76l-11.46-12.094c-44.103-46.542-134.99-30.124-140.54 47.158-2.3823 33.183 13.92 59.497 45.521 73.476 10.487 4.6392 17.54 5.5077 36.596 4.5074 43.132-2.2638 58.198-22.254 72.694-38.768l337.56-1.9479c46.224 44.214 223.78 191.58 260.7 222.01 220.71-0.0996 458.04-0.2473 458.04 0.9463 0 1.5211-22.642 46.389-23.666 48.435h-728.77c-8.3683-9.7762-18.119-22.475-35.113-31.374-20.648-10.814-55.049-11.339-74.681-1.1421-29.72 15.436-44.766 40.283-44.623 73.689 0.3365 78.347 104.17 107.51 150.41 40.39l5.0166-7.2823c272.05-0.5887 690.26-2.4232 690.26 1.5105 0 4.6887-20.744 44.842-24.403 47.237-4.3363 2.8369-562.43 2.2263-580.99 2.2292-69.324 66.38-72.32 69.153-147.6 142.6l-242.26 0.1292c-7.4153-9.2271-15.178-21.212-36.32-31.777-15.122-7.5562-21.34-8.9937-38.672-8.9399-109.15 0.3376-103.14 154.78-2.1833 155.62 16.403 0.1353 22.642-1.3794 39.153-9.5061 22.498-11.073 28.366-20.602 35.591-29.658l271.97-2e-4c136.63-133.14 129.82-126.24 151.88-145.65h513.05c-4.464 14.395-6.6614 18.284-20.867 46.607h-259.05l-344.69 346.64h-380.92l-9.0492-10.307c-21.701-24.717-59.376-34.269-92.182-23.373-76.457 25.394-66.122 150.2 28.586 150.2 38.702 0 52.429-17.094 76.804-41.469l403.23 0.998 345.79-347.17 196.54 1.6797c-157.95 324.65-211.6 425.97-207.13 430.43 4.487 4.4871-5.0918 13.432-145.49 156.52h-528.74c-21.714-22.423-34.752-37.713-68.362-40.118-37.582-2.6895-65.546 11.967-80.339 42.105-33.091 67.418 38.944 136.1 108.32 103.29 21.042-9.9548 27.412-20.697 36.446-31.721 3.3984-4.1467 133.13-3.6411 569.7-3.6411 79.818-83.124 141.12-148.47 190.79-202.45 143.31-2.3162 180.23-2.6731 180.23-2.0129-0.0031 1.447-263.22 274.79-452.81 481.19h-598.5c-3.8102 20.719-3.2301 26.845-1.7203 74.28 31.104 0.1851 224.19 1.3335 255.21 1.5181 27.299 19.959 18.84 12.179 221.05 177.56 131.7 107.72 124.16 100.85 134.1 122.09 15.8 33.781 34.16 47.008 68.287 49.199 23.309 1.4956 46.394-4.1267 63.988-20.172 18.251-16.644 25.437-38.652 24.301-62.705-0.5942-12.543-2.0364-24.808-3.2052-27.256-2.8326-5.9319 34.093-39.22 322.79-291 328.79-286.74 426.9-353.46 579.61-478 27.666 0.1855 199.7 1.3381 227.27 1.5229 0.5496 43.05 1.0205 79.951 1.5699 123-149.17 135.09-561.59 518.48-561.98 518.84-285.79 266.25-405.3 372.65-405.19 378.31 0.0121 0.6484-2.0121 0.3872 51.473 49.924 0.3625-0.3398 808.2-753.28 988.4-908.75v-174.43h52.433v344.69c-181.86 192.8-256.82 265.88-617.49 648.03l-21.143 2.01c-118.47 11.263-101.37 155.99-3.8219 155.86 54.819-0.0757 91.03-45.213 79.519-99.118-3.374-15.799-4.2573-6.9509 204.78-225.68 404.21-422.97 294.49-309.73 430.94-449.85 0.1826-45.974 1.3179-331.72 1.4993-377.39 18.575-0.5823 34.536-1.0825 53.111-1.6648 3.4983 22.952 3.3818 39.167 3.8684 444.73-153.78 148.26-107.08 103.36-373.03 351.33v207.99l-11.128 8.3708c-48.454 36.447-46.235 101.92 4.4607 131.63 15.636 9.1631 48.727 12.529 68.554 6.9724 43.604-12.219 69.15-63.901 51.671-104.53-6.0513-14.068-31.204-41.318-38.136-41.318-1.7384 0-2.5979-25.43-2.5979-174.46 99.048-92.403 239.24-223.23 370.67-354.24-1.01-333.1-0.5479-327.62 3.0903-473.35h50.768c3.5381 21.409 3.6094 6.8347 3.675 626.32-11.288 9.6152 3.0254-1.7136-233.04 186.74v187.55l-13.753 10.19c-18.556 13.748-32.854 40.91-32.854 62.412 0 42.671 40.162 75.967 72.834 78.22 24.64 3.8596 52.576-6.543 73.38-27.326 33.001-32.967 27.865-83.296-11.412-111.81l-12.092-8.78c-0.1133-50.06-0.2424-107.29-0.3557-157.35l164.58-133.11c1.5159 272.54 2.26 287.16-3.291 290.46-59.294 35.319-50.34 116.05 8.677 141.44 12.135 5.2214 18.646 6.1128 36.725 5.0322 34.49-2.0618 58.033-16.742 71.724-44.725 6.9382-14.181 7.6528-18.4 6.4072-37.809-1.2292-19.156-2.7009-23.733-11.944-37.154-12.073-17.529-23.47-23.283-33.861-29.694-0.136-195.9-0.6782-226.34 3.9172-223.71 7.3752 4.2173 129.79 115.26 159.05 138.2v89.388l-11.498 9.1067c-16.666 13.2-27.896 37.593-27.545 59.837 0.7 44.455 39.546 79.42 85.146 76.64 10.827-0.6599 24.6-3.6575 31.09-6.7664 17.098-8.1909 41.096-33.245 44.873-46.847 10.522-37.896-5.51-74.618-39.692-90.919l-9.5503-4.554-0.0581-119.81c-46.713-37.402-198.36-173.33-220.61-194.04-20.476-19.061-18.206-17.302-18.206-42.763 77.846-64.104 92.274-75.668 120.89-100.94 0.1619-30.262 2.7512-514.61 2.9128-544.88h54.656c0.0383 29.743 0.6519 505.3 0.6902 535.04 38.304 30.563 323.18 270.67 380.62 324.28-0.2126 46.257-0.4556 99.114-0.6682 145.37-17.162 16.444-38.184 34.008-38.393 68.098-0.124 20.212 5.3274 33.918 19.908 50.057 48.594 53.788 135.29 26.971 140.33-43.404 3.0869-43.142-16.256-56.712-49.641-79.682 0.491-21.367 3.5413-154.12 4.0303-175.39-347.38-290.66-340-285.36-383.36-323.68-0.1731-399.66-0.512-436.5 1.8562-502.14h51.094c3.2698 145.16 3.8384 153.5 3.8511 362.8 65.702 56.108 420.78 416.99 480.7 477.68l0.4836 162.18-8.2771 5.0718c-67.772 41.524-47.193 145.79 41.242 145.79 23.636 0 41.856-6.5613 58.219-20.964 45.411-39.972 26.951-98.625-6.1907-119.11l-9.7905-6.0505v-189.72c-75.95-82.781-352.39-360.61-483.55-491.2v-326.7c18.847 0.5859 35.042 1.0894 53.889 1.6753 0.1836 38.095 1.3247 274.95 1.5071 312.79 617.24 556.16 525.8 467.45 790.93 732.95l0.6924 21.847c1.697 53.546 39.403 88.374 90.647 83.727 19.506-1.7688 30.982-7.0569 47.293-21.793 38.876-35.123 32.491-93.229-13.36-121.59-16.314-10.09-17.756-8.8577-69.425-9.6833-293.92-301.53-362.48-337.04-774-720.79 0-230.22 0.5647-222.95 3.79-278.92 7.8333 0 41.126-0.4612 46.935 1.7681 8.7788 3.3689 0.4768 66.138 8.416 213.79h200.1c0.125 48.008-0.627 148.49 3.5371 153.17 1.1177 1.2542 387.71 389.28 388.51 390.09-1.9368 39.879-3.1797 46.115 3.7734 60.478 7.9338 16.39 21.035 28.772 42.141 39.828 23.509 12.315 48.154 12.532 73.282 0.6436 30.781-14.562 46.147-38.069 46.002-70.364-0.1016-22.264-5.489-36.196-20.362-52.659-26.817-29.684-45.881-27.588-89.284-29.663-45.317-42.754-28.702-25.799-371.87-367.71v-196.64h-206.82v-142.8c30.324 0.1851 218.93 1.3354 249.06 1.519 0.5605 30.696 1.042 57.073 1.6023 87.77 858.63 840.08 484.07 470.64 707.75 692.58l-2.2095 10.354c-16.533 77.46 55.786 125.26 118.83 94.228 21.789-10.723 29.962-18.464 38.753-36.704 8.1846-16.982-2.001-5.312 393.05-304.96h258.4v-75.737h-613.3c-86.376-88.602-521.87-578.26-533.59-601.56-7.3513-14.623-35.514-90.937-42.314-109.11-22.067-0.1873-159.36-1.3521-181.33-1.5386-1.0015-53.394-0.6062-32.324-1.6121-85.932 190.75 0 200.52-0.7832 202.31 5.0974 1.9956 6.532 22.108 81.816 24.61 91.154 70.497 66.16 39.361 35.813 437.63 426.18l589.63-1.1326c12.294 16.94 16.134 24.586 37.724 35.215 75.448 37.143 142.42-42.317 108-104.59-16.316-29.524-41.989-43.054-76.933-40.545-33.702 2.4189-45.937 16.444-68.793 38.668-316.35 1.7585-352.75 2.5227-559.81-2.1082-104.65-103.21-138.7-136.66-401.46-395.01l-31.933-125.7-265.19-1.5144c0.6743-34.081 0.7358-38.396 1.4565-62.628l537.44 0.093c109.38 103.15 192.49 182.51 364.12 346.78l399.93-1.3857c23.632 24.316 38.57 40.334 74.876 40.209 33.418-0.1152 60.019-15.816 74.357-43.889 9.6045-18.804 9.9673-49.255 0.792-66.539-14.76-27.806-39.735-42.09-73.693-42.145zm-47.724-292.7c25.129-0.2363 41.943 16.299 44.196 43.465 1.1416 13.77 0.2427 17.838-6.0444 27.339-16.882 25.51-48.477 22.935-62.65 15.95-5.2764-2.6006-12.814-10.223-16.75-16.939-18.82-32.114 3.2427-69.457 41.248-69.815zm-326.89-369.46c50.577 0 69.938 56.427 28.719 83.704-34.458 22.803-79.394 1.179-79.394-38.206 0-25.739 22.007-45.497 50.675-45.497zm281.67-224.6c19.569-24.878 59.606-22.717 77.902 4.2048 5.6904 8.3726 6.627 12.823 5.647 26.826-1.3037 18.633-7.1226 28.742-22.615 39.286v2e-4c-11.676 7.9465-31.913 8.6527-46.202 1.6124-10.374-5.1116-22.174-20.665-25.235-33.264-2.3916-9.8419 2.7666-28.83 10.502-38.666zm79.971-331c23.449-11.351 51.317-1.0671 64.102 23.655 10.622 20.54-0.3926 49.721-22.874 60.604-59.352 28.732-97.312-57.109-41.227-84.26zm-957.51 297.34c5.5859 8.2389 6.6016 12.8 5.5859 25.452-1.2905 16.079-7.1145 26.626-20.023 36.264v-1e-4c-10.461 7.8103-36.409 9.5819-48.646 3.3212-15.915-8.1427-24.968-22.548-24.714-39.326 0.7056-46.777 61.395-64.549 87.797-25.71zm889.6-616.73c13.265-12.557 20.162-15.54 35.933-15.54 50.844 0 63.844 71.924 16.65 92.116-13.232 5.6619-26.522 4.9823-40.804-2.0867-28.789-14.25-34.859-52.641-11.779-74.49zm-1130.9-660.45c10.11-8.6631 23.891-13.166 37.114-11.275 19.251 2.7539 35.837 18.85 39.167 38.01 3.3301 19.16-6.8525 39.908-24.045 48.995-38.723 20.468-82.671-22.182-63.374-61.501 2.6831-5.4666 6.5293-10.28 11.138-14.23zm137.95-274.47c19.446 8.1252 31.346 33.714 24.974 53.704-4.5388 14.237-18.953 29.043-31.731 32.593-19.217 5.3389-30.908 2.1987-45.953-12.342-37.64-36.378 3.7292-94.42 52.711-73.954zm-534.36-0.306c13.303-8.9648 33.75-8.9951 46.865-0.0693 16.54 11.258 21.817 20.945 21.817 40.053 0 18.282-4.7812 27.74-19.626 38.823-11.846 8.844-33.295 9.437-47.286 1.3071-32.679-18.989-33.557-58.693-1.7707-80.114zm-170.77 13.594c6.5369 7.7686 7.8635 12.166 7.8635 25.884-0.0139 21.114-7.4075 33.822-24.081 41.391h2e-4c-34.72 15.761-69.122-4.9558-69.122-41.624 1e-4 -41.569 57.422-58.829 85.34-25.651zm-453.58 68.317c-21.836 10.362-48.017 3.197-59.973-16.413-11.79-19.338-3.9309-51.684 15.426-63.487 12.473-7.605 35.344-7.6121 47.805-0.0146 27.659 16.865 25.648 66.197-3.2574 79.914zm-440.21-3.5828h-2e-4c-15.102 8.8201-30.257 9.4512-44.966 1.873-16.246-8.3701-23.977-21.226-24.265-40.354-0.2471-16.383 5.4287-26.196 21.554-37.263 19.306-13.25 51.434-4.0691 62.875 17.967 10.281 19.802 3.1037 47.089-15.197 57.777zm-297 5.5164c-7.9952-3.262-21.984-17.665-25.102-25.845-11.32-29.7 10.763-61.71 42.574-61.71 28.894 0 46.405 17.24 46.405 45.686 0 17.245-5.6531 27.201-21.61 38.061-10.004 6.8088-30.406 8.6469-42.267 3.8081zm-404.02-5.1243h-4e-4c-7.597 5.6719-28.194 8.8145-38.628 5.8933-43.244-12.106-44.97-88.359 14.84-88.314 26.763 0.0208 42.871 17.169 43.014 45.794 0.0819 16.278-5.04 26.036-19.225 36.626zm-1325.5 928.87v-1e-4c-12.576 8.9546-35.309 10.105-49.302 2.495-15.776-8.5795-23.767-21.527-25.105-40.679-1.3069-18.696 5.4226-31.607 22.458-43.087 27.495-18.529 73.051 4.641 73.051 37.154-1e-4 15.986-9.5054 35.86-21.102 44.117zm1017.9 497.82c-4.9508 7.7003-12.907 15.38-18.863 18.206h0.0017c-40.208 19.08-83.016-21.07-63.586-63.855 18.929-41.683 84.982-34.651 89.771 18.566 1.0359 11.508-0.1649 15.948-7.3236 27.083zm-1131.2-167.82c-10.629 5.7548-23.566 7.447-36.833 2.5739-18.324-6.7305-31.24-26.002-30.502-45.509 0.7387-19.507 15.076-37.746 33.856-43.072 18.78-5.3254 40.557 2.6731 51.426 18.888 16.619 24.794 4.4633 54.986-17.947 67.119zm113.96 315.44h-4e-4c-25.721 17.506-73.389-0.2268-69.248-43.32 5.5024-57.272 91.065-57.454 91.065 3.2675 1e-4 19.108-5.2764 28.795-21.817 40.053zm310.67 342.84c-9.1919 7.1287-21.121 10.932-34.574 8.9587-19.662-2.8839-36.553-19.392-39.886-38.983s7.1471-40.756 24.75-49.98c17.602-9.2241 40.97-5.797 55.182 8.0931 22.283 21.778 15.592 55.576-5.4714 71.912zm-321.48 272.68c-1.4652 0.3743-2.9734 0.6848-4.5242 0.9275-19.533 3.0562-40.448-7.6497-49.391-25.282-8.9427-17.632-5.2239-40.832 8.7821-54.786 14.006-13.954 37.219-17.586 54.818-8.5776 38.236 19.572 30.411 77.48-9.6851 87.718zm-111.11 316.44c-10.354-9.6667-15.018-20.695-15.018-35.508 0-35.977 34.372-57.737 66.083-41.835 17.457 8.7542 24.711 18.837 26.271 36.52 3.9059 44.258-47.46 68.718-77.337 40.823zm118.98 319.73v-5e-4c-23.336 11.782-50.778 4.1919-64.372-17.803-7.8623-12.721-6.8816-39.325 1.886-51.176 21.224-28.685 69.216-25.941 83.156 4.7549 11.547 25.426 2.8884 52.33-20.67 64.224zm1339.3 914.29h4e-4c-11.711 8.6746-36.099 9.7686-48.211 2.1631-29.422-18.475-28.117-62.505 2.3159-78.11 15.853-8.1292 28.73-8.3088 43.82-0.6108 30.076 15.344 31.151 55.021 2.0752 76.558zm452.97-64.628c13.953 19.109 6.6639 53.85-13.974 66.606l-0.0039 5e-4c-13.612 8.4126-35.296 10.264-47.451 4.0522-33.654-17.203-33.639-67.078 0.0292-84.489 19.023-9.8375 49.058-3.0716 61.4 13.831zm252.71 65.864v2e-4c-7.2605 4.8928-13.895 6.5527-26.059 6.5151-20.682-0.0625-32.677-7.3557-41.26-25.086-10.462-21.611-4.7744-42.292 15.868-57.704 11.893-8.8792 40.585-8.4624 53.54 0.7778 26.282 18.746 25.221 57.093-2.0889 75.497zm484.64-76.821c14.078 10.738 19.622 19.812 21.163 34.635 1.7102 16.459-8.4194 36.143-22.352 43.437v-5e-4c-23.659 12.385-54.389 2.7117-66.442-20.915-7.9124-15.51-6.8145-27.828 3.9517-44.329 14.251-21.841 44.004-27.835 63.68-12.828zm367.53-7.8811c4.8889-0.03 9.957 0.7878 15.087 2.6062 17.897 6.3435 30.673 24.944 30.17 43.925-0.5024 18.981-14.245 36.88-32.452 42.267-18.207 5.3875-39.476-2.1511-50.227-17.802-21.146-30.786 3.9284-70.79 37.421-70.996zm231.11-0.8567c1.1255 0.2168 2.2585 0.4771 3.3979 0.782 19.055 5.1016 33.812 23.317 34.849 43.016 1.0364 19.699-11.728 39.363-30.142 46.436-18.414 7.0732-41.06 1.0105-53.478-14.317-27.244-33.629 4.1333-83.861 45.373-75.918zm459.29 1.7182c13.612-4.4924 34.695-2.082 44.262 5.0605 14.725 10.994 19.51 20.493 19.51 38.737 0 18.282-4.7815 27.74-19.626 38.823h2e-4c-9.6409 7.1985-32.814 9.197-44.604 3.8481-12.074-5.4785-23.977-20.282-26.311-32.724-4.4565-23.756 7.2754-47.311 26.769-53.744zm-70.626-285.87c7.5029-4.0359 16.352-6.0498 26.139-5.1062 19.917 1.9202 37.725 17.679 42.054 37.215 4.3286 19.536-5.156 41.342-22.398 51.496-17.242 10.154-40.912 7.8718-55.896-5.3882-26.383-23.346-16.779-63.757 10.101-78.216zm1126.3-632.7c19.231-4.9773 41.198 3.6709 51.874 20.422s9.2397 40.315-3.3931 55.646c-4.3428 5.2705-9.894 9.4282-16.06 12.32-11.77 5.5188-25.781 6.4243-37.91 1.6494-41.655-16.398-37.783-78.837 5.4893-90.037zm-716.69-2530.1c17.93-35.146 70.071-31.42 85.628 6.1184 9.0479 21.832 0.2739 45.184-21.072 56.086-42.186 21.545-85.829-20.508-64.557-62.205zm-3334.5-6.0327c31.827-46.763 93.842-14.406 85.416 30.508-2.6299 14.017-19.65 32.662-33.27 36.445h-4e-4c-12.063 3.3506-13.568 3.3633-23.996 0.2029-29.219-8.8547-43.935-43.962-28.149-67.156zm77.507 3250.6c-0.8569 4.053-2.303 8.1257-4.4085 12.146-9.277 17.716-30.572 28.269-50.288 24.92-19.716-3.3486-36.332-20.34-39.24-40.126-2.9078-19.785 8.1171-40.839 26.035-49.719 36.287-17.982 75.547 16.613 67.901 52.778zm886.81-869.28c-56.978 51.309-184.33 139.56-368.73 297.97-596.69 512.58-537.01 476.33-571.9 481.66-22.971 3.5105-35.085 10.539-47.166 16.543-140.27-114.78-219.22-176.33-255.43-209.06l253.5-0.1572c194.47-206.33 348.36-372.74 531.33-556.37l185.18-0.0635c91.518-189.06 62.993-132.74 153.07-317.45h706.91c5.96 12.05 131.88 272.86 131.88 286.29 0 3.1997-397.5 1.5715-718.63 0.6377zm750.65 1117.1c0.01 18.856-6.8413 32.127-21.062 40.797v-5e-4c-11.614 7.0808-31.981 7.5156-45.27 0.9658-38.997-19.22-28.773-85.516 24.565-85.437 25.799 0.0349 41.767 16.718 41.767 43.675zm37.899-563.13c-8.2998 7.0044-46.672 39.629-51.522 42.584-4.3508 2.6501-3.824-95.737-3.824-551.42h55.346v508.84zm11.321-610.79c-59.553-124.36-86.912-185.95-156.67-332.08-619.71 0-823.47-0.5999-826.89 3.6411-2.3104 2.8628-97.49 200.18-155.69 324.66l-35.106 1.8877 4e-4 -7e-4c-33.485 1.8003-238.93 2.5569-322.95-2.4819 265.58-533.51 69.886-157.48 673.24-1370.5 81.723-0.0146 215.54-1.3134 508.73-3.8567 25.968 36.64 685.61 1370.5 685.61 1375.9 0 3.7721-253.35 2.9062-370.27 2.9062zm437.27-1473.9v372.46c13.951 4.4276 16.146 5.4805 33.151 12.586-20.624 11.067-13.252 7.1113-33.151 17.789v484.58h5e-4c0 266.52-0.9832 484.57-2.1846 484.57-4.6772-0.022-680.03-1363.2-695.92-1369.5-5.6482-2.2229-396.56-3.4507-622.92 1.8445-13.579 25.914-8.5261 16.271-22.132 42.238-118.13 0-124.34-0.3673-315.77 3.7317-66.185-64.578-451.52-479.93-562.2-600.38-32.697-0.0637-259.86 0.3048-262-3.155-3.266-5.2844 75.508-60.904 272.9-214.58l14.595 7.2231c15.35 7.5964 38.733 9.7688 56.372 5.2373 15.762-4.0491-5.0211-7.2341 739.1 743.09l1834.4-0.9163c308.78-313.84 183.42-189.58 723.69-731.32l19.546-0.4395c19.678-0.4426 41.723-7.6978 52.2-17.18 7.5571-6.8391-8.1904-17.502 162.75 110.2 85.831 64.123 126.61 95.618 127.68 98.621 1.3198 3.6821-246.95 2.7091-264.1 2.7091-202.61 216.55-342.64 370.76-571.96 617.54h-153.86v-78.364c-30.498 13.844 12.298 11.23-530.16 11.367zm430.24 1473.9h-325.39c0.0415-29.488 1.4309-1014.9 1.4724-1044.3 38.544-0.1787 288.22-1.3359 324.79-1.5054 1.3261 84.966 3.1203 882.25-0.8733 1045.8zm2.3298-1149.2c-51.4 0.2361-239.47 1.0997-327.71 1.5049v-217.63c69.091-4.2273 229.31-6.1097 329.23 0.0044-0.186 26.336-1.3406 189.83-1.5261 216.12zm766.96 2108.1c-17.301 9.3333-40.415 6.4995-54.894-6.824-33.034-30.399-6.8799-87.466 37.712-82.29 19.801 2.2986 37.233 18.341 41.166 37.883s-5.937 41.079-23.308 50.858c-0.2246 0.1265-0.4507 0.251-0.6772 0.3733zm-664.31-859.92c4.373-26.456 3.6279-60.673 3.675-168.95h119.8c36.694 81.691 41.481 92.759 74.537 129.63 345.54 385.38 360.21 404.55 520.79 583.82 122.87 0.1069 260.72 0.1299 260.59 2.4102-0.1895 3.4644-210.68 162.01-211.07 162.3l0.0142-0.0015c-50.123 37.506-69.968 49.87-72.769 45.337-4.856-7.8567-26.733-15.334-49.336-16.862l-23.542-1.5908c-740.26-724.74-693.2-672.42-696.13-693.45-2.3535-16.681 0.3491-31.152 1.9287-42.636h71.514zm1399.6-118.07v2e-4c-11.746 8.6919-40.021 9.4778-52.206 1.4512-39.216-25.832-22.274-88.535 23.92-88.535 17.674 0 32.036 7.438 41.511 21.499 12.862 19.087 6.417 51.05-13.225 65.585z"/> <path d="m1969.6 1470.5c-35.782 85.059-279.64 609.88-296.34 642.3 361.82 0 652.65-0.0347 652.65-1.0681 0-0.2915-199.72-424.62-299.17-641.24h-57.145zm201.02 539.62c1.7556 4.1923-76.518 3.6412-336.7 3.6412 14.697-35.498 152.65-322.53 169.14-356.84 63.519 125.87 167.44 352.9 167.57 353.19h3e-4z"/> </svg>