<?xml version="1.0" encoding="utf-8"?>
<!-- Generator: Adobe Illustrator 22.1.0, SVG Export Plug-In . SVG Version: 6.00 Build 0)  -->
<svg version="1.1" id="Layer_1" xmlns="http://www.w3.org/2000/svg" xmlns:xlink="http://www.w3.org/1999/xlink" x="0px" y="0px"
	 viewBox="0 0 500 500" style="enable-background:new 0 0 500 500;" xml:space="preserve">
<style type="text/css">
	.st0{fill:#E8E8E8;}
	.st1{fill:#FFFFFF;}
	.st2{fill:#323641;}
	.st3{fill:#292B37;}
	.st4{fill:#3F434F;}
	.st5{fill:#1E2028;}
	.st6{fill:#19B2B8;}
	.st7{fill:#FFFBFC;}
	.st8{fill:#D4EBFF;}
	.st9{fill:#2D3039;}
</style>
<rect x="0.3" class="st0" width="500" height="500"/>
<g>
	<path class="st1" d="M226.1,387.3h-2.9v-29.1c0.1-3.4-1.3-6-4-7.5c-1.4-0.8-3-1.2-4.8-1.2H146c-4,0-7.2-1.2-9.3-3.5
		c-3.1-3.5-2.9-8.2-2.8-8.9c0-7.9,5.9-10.5,9-10.7l0.1,0h23.2c6.1-1.4,6-7.7,6-8l0-0.1c0-7.5-7.2-8.7-8.1-8.9l-66.3,0.1L83,309.3
		c-4.3,0-7.6-1.2-9.8-3.5c-2.9-3-2.8-6.9-2.8-7.4c0-0.5,0-2.7-0.1-14.3c0-5.4,0-11.1-0.1-11.5c-0.3-4.6,1-8.6,3.5-11.3
		c2.4-2.6,5.8-3.9,10.1-4l19.4,0v2.9H83.9c-3.5,0.1-6.2,1.1-8,3.1c-2,2.1-3,5.4-2.8,9.2c0,0.1,0,0.1,0.1,11.6
		c0,6.4,0.1,13.6,0.1,14.3l0,0.1l0,0.1c0,0-0.1,3.1,2,5.3c1.7,1.7,4.3,2.6,7.8,2.6l14.8,0.1l66.4-0.1l0.1,0
		c3.7,0.4,10.7,3.4,10.7,11.7c0.1,3.1-1.5,9.4-8.4,10.9l-0.2,0h-23.4c-0.8,0.1-6.3,0.9-6.3,7.9l0,0.1c0,0-0.4,4.1,2.1,6.8
		c1.6,1.7,4,2.6,7.2,2.6h68.5c2.2,0,4.4,0.6,6.2,1.6c2.5,1.5,5.5,4.4,5.4,10V387.3z"/>
	<rect x="247.1" y="266" class="st2" width="51.1" height="18.9"/>
	<polygon class="st3" points="304,284.9 272.6,284.9 241.2,284.9 234.5,290 272.6,290 310.8,290 	"/>
	<path class="st3" d="M182.4,136.2h180.5c2.4,0,4.4,2,4.4,4.4v123c0,2.4-2,4.4-4.4,4.4H182.4c-2.4,0-4.4-2-4.4-4.4v-123
		C178,138.2,180,136.2,182.4,136.2z"/>
	<path class="st4" d="M361.5,242.5c0,1-0.8,1.8-1.8,1.8H186.2c-1,0-1.8-0.8-1.8-1.8v-98.4c0-1,0.8-1.8,1.8-1.8h173.5
		c1,0,1.8,0.8,1.8,1.8V242.5z"/>
	<rect x="247.1" y="268" class="st5" width="51.1" height="2"/>
	<polygon class="st5" points="311.3,290.4 234,290.4 235.9,288.9 309.3,288.9 	"/>
	<g>
		<g>
			<path class="st1" d="M274.1,255.9c0,0.8-0.6,1.4-1.4,1.4s-1.4-0.6-1.4-1.4c0-0.8,0.6-1.4,1.4-1.4S274.1,255.1,274.1,255.9z"/>
		</g>
		<g>
			<path class="st1" d="M283.6,255.9c0,1.1-0.9,2-2,2c-1.1,0-2-0.9-2-2s0.9-2,2-2C282.7,253.9,283.6,254.8,283.6,255.9z"/>
		</g>
		<g>
			<path class="st1" d="M292.5,255.9c0,1.1-0.9,2-2,2c-1.1,0-2-0.9-2-2s0.9-2,2-2C291.6,253.9,292.5,254.8,292.5,255.9z"/>
		</g>
		<g>
			<path class="st1" d="M256.8,255.9c0,1.1-0.9,2-2,2c-1.1,0-2-0.9-2-2s0.9-2,2-2C255.9,253.9,256.8,254.8,256.8,255.9z"/>
		</g>
		<g>
			<path class="st1" d="M265.8,255.9c0,1.1-0.9,2-2,2c-1.1,0-2-0.9-2-2s0.9-2,2-2C264.8,253.9,265.8,254.8,265.8,255.9z"/>
		</g>
	</g>
	<path class="st3" d="M207.7,252l-3.9-2.1l4.1-1.6c0.9-0.4,1.5-1.2,1.4-2.2l-0.1-1.1l0-0.2l-0.2-3.2c-0.1-1-0.7-1.8-1.7-2l-4.9-1.3
		c0-0.1,0-0.2-0.1-0.3l4.1-2.9c0.8-0.6,1.1-1.6,0.8-2.5l-0.3-1.1l-0.1-0.2l-1-3.1c-0.3-0.9-1.1-1.6-2.1-1.6l-5.1,0
		c-0.1-0.3-0.2-0.5-0.4-0.8l3.3-3.9c0.6-0.7,0.7-1.8,0.2-2.6l-0.6-1l-0.1-0.2l-1.7-2.7c-0.5-0.8-1.5-1.2-2.5-1l-4.9,1.3
		c-0.1-0.1-0.2-0.3-0.4-0.4l2.2-4.6c0.4-0.9,0.2-1.9-0.5-2.6l-0.8-0.8l-0.2-0.1l-2.4-2.2c-0.7-0.7-1.8-0.8-2.6-0.3l-4.5,2.4
		c0,0-0.1-0.1-0.1-0.1l1-5c0.2-1-0.3-1.9-1.1-2.4l-1-0.6l-0.2-0.1l-2.8-1.6c-0.8-0.5-1.9-0.4-2.6,0.3l-3.7,3.5
		c-0.2-0.1-0.4-0.2-0.6-0.2l-0.3-5.1c-0.1-1-0.7-1.8-1.7-2l-1.1-0.3l-0.2-0.1l-3.1-0.8c-0.9-0.2-1.9,0.1-2.5,1l-2.7,4.3
		c-0.2,0-0.5-0.1-0.7-0.1l-1.6-4.9c-0.3-0.9-1.2-1.6-2.1-1.6h-4.6c-1,0-1.8,0.7-2.1,1.6l-1.6,4.9c-0.3,0-0.5,0.1-0.8,0.1l-2.7-4.3
		c-0.5-0.8-1.5-1.2-2.5-1l-1.1,0.3l-0.2,0.1l-3.1,0.8c-0.9,0.2-1.6,1.1-1.7,2l-0.3,5.1c0,0-0.1,0-0.1,0l-3.7-3.5
		c-0.7-0.7-1.8-0.8-2.6-0.3l-1,0.5l-0.2,0.1l-2.8,1.6c-0.9,0.5-1.3,1.4-1.1,2.4l1,5c-0.2,0.2-0.5,0.4-0.7,0.5l-4.5-2.4
		c-0.9-0.5-1.9-0.3-2.6,0.3l-0.8,0.8l-0.2,0.1l-2.3,2.2c-0.7,0.7-0.9,1.7-0.5,2.6l2.2,4.6c-0.2,0.3-0.5,0.6-0.7,0.9l-4.9-1.2
		c-0.9-0.2-1.9,0.2-2.4,1l-0.6,1l-0.1,0.2l-1.7,2.8c-0.5,0.8-0.4,1.9,0.2,2.6l3,3.5l-4.6,0c-1,0-1.8,0.6-2.1,1.6l-0.3,1.1l-0.1,0.2
		l-1,3.1c-0.3,0.9,0,1.9,0.8,2.5l3.9,2.8l-4.7,1.1c-0.9,0.2-1.6,1-1.7,2l-0.1,1.1l0,0.2l-0.2,3.2c-0.1,1,0.5,1.9,1.4,2.2l4.7,1.9
		c0,0.3,0,0.7,0.1,1l-4.5,2.4c-0.9,0.5-1.3,1.4-1.1,2.4l0.2,1.1l0,0.2l0.6,3.2c0.2,1,1,1.7,1.9,1.8l5,0.6c0.1,0.4,0.3,0.9,0.4,1.3
		l-3.6,3.5c-0.7,0.7-0.9,1.7-0.5,2.6l0.5,1l0.1,0.2l1.4,2.9c0.4,0.9,1.4,1.4,2.3,1.2l5-0.7c0.1,0.2,0.2,0.4,0.4,0.5l-2.6,4.3
		c-0.5,0.8-0.4,1.9,0.2,2.6l0.7,0.9l0.1,0.2l2.1,2.5c0.6,0.7,1.7,1,2.6,0.6l4.5-1.9l-1.5,4.6c-0.3,0.9,0,1.9,0.8,2.5l0.9,0.7
		l0.2,0.1l2.6,1.9c0.8,0.6,1.9,0.6,2.6,0l4.1-3c0.1,0,0.2,0.1,0.2,0.1l-0.3,5.1c-0.1,1,0.5,1.9,1.4,2.2l1.1,0.4l0.2,0.1l3,1.2
		c0.9,0.4,1.9,0.1,2.6-0.7l3.2-3.9c0.2,0,0.4,0.1,0.6,0.1l1,5c0.2,1,1,1.7,1.9,1.8l1.1,0.1l0.2,0l3.2,0.4c1,0.1,1.9-0.4,2.3-1.3
		l2.1-4.6c0.2,0,0.3,0,0.5,0l2.2,4.6c0.4,0.9,1.4,1.4,2.3,1.3l1.1-0.1l0.2,0l3.2-0.4c1-0.1,1.7-0.9,1.9-1.8l0.9-5
		c0.1,0,0.2-0.1,0.3-0.1l3.2,3.9c0.6,0.7,1.7,1,2.6,0.6l1-0.4l0.2-0.1l3-1.2c0.9-0.4,1.5-1.3,1.4-2.2l-0.4-5.1
		c0.2-0.1,0.4-0.2,0.6-0.3l4.1,3c0.8,0.6,1.9,0.6,2.6,0l0.9-0.7l0.2-0.1l2.6-1.9c0.8-0.6,1.1-1.6,0.8-2.5l-1.6-4.8
		c0.2-0.2,0.3-0.3,0.5-0.5l4.8,1.8c0.9,0.3,1.9,0.1,2.6-0.7l0.7-0.9l0.1-0.2l2-2.5c0.6-0.8,0.7-1.8,0.1-2.6l-2.8-4.2
		c0.1-0.1,0.1-0.2,0.2-0.3l5,0.6c1,0.1,1.9-0.4,2.3-1.3l0.5-1l0.1-0.2l1.3-3c0.4-0.9,0.2-1.9-0.5-2.6l-3.7-3.4
		c0.1-0.2,0.1-0.4,0.2-0.5l5-0.7c1-0.1,1.7-0.9,1.9-1.8l0.2-1.1l0-0.2l0.6-3.2C209,253.4,208.6,252.4,207.7,252z M153.6,295
		c-26.6,0-48.1-21.6-48.1-48.1c0-26.6,21.5-48.1,48.1-48.1c26.6,0,48.1,21.5,48.1,48.1C201.8,273.4,180.2,295,153.6,295z"/>
	<path class="st6" d="M192.3,226.8c-11.1-21.4-37.4-29.7-58.8-18.7c-21.4,11.1-29.7,37.4-18.7,58.8c11.1,21.4,37.4,29.7,58.8,18.7
		C195,274.5,203.4,248.2,192.3,226.8z"/>
	<g>
		<path class="st3" d="M185.1,250.1c-0.1-0.1-0.3-0.4-0.3-0.4c0-0.1-0.1,0-0.2,0.1c-0.1,0.1-0.1,0.6-0.1,0.7c0,0.1,0,0.1,0,0.2
			c0,0.1,0,0.2,0,0.6c0,0,0,0.3,0,0.4c0,0.1,0.1,0.1,0.2,0.3c0.1,0.2,0.1,0.4,0.2,0.5c0.1,0.1,0.3,0,0.5,0c0.3-0.1,0-0.2,0.1-0.4
			c0.1-0.2,0.1-0.5,0-0.5c-0.1-0.1,0-0.2,0-0.3c0-0.1,0-0.3,0-0.5c-0.1-0.2-0.1-0.3-0.1-0.4C185.4,250.2,185.2,250.2,185.1,250.1z"
			/>
		<path class="st3" d="M194.3,251.5c-0.1-0.2-0.2,0.3-0.3,0.4c-0.1,0.1-0.1-0.1-0.1-0.2c-0.1-0.1-0.2-0.4-0.4-0.5
			c-0.1-0.1-0.2-0.2-0.3-0.4c-0.1-0.2-0.2-0.2-0.2-0.4c0-0.2,0-0.4-0.2-0.5c-0.2-0.1-0.2,0.1-0.3,0.2c-0.1,0.2-0.2,0.1-0.3,0.1
			c-0.1,0-0.1-0.2-0.2-0.3c-0.1-0.1-0.1,0.1-0.1,0.2c0,0.1,0.2,0.3,0.1,0.4c0,0.1,0,0.3,0,0.5c0.1,0.1,0.1,0.2,0.4,0.2
			c0,0,0.1,0.1,0.1,0.1c0,0.1,0.1,0.3,0.1,0.5c0,0.2,0,0.5,0.1,0.6c0.1,0.1,0.3,0.2,0.4,0.4c0.1,0.2,0.1,0.2,0.1,0.5
			c0,0.2,0.2,0.1,0.2,0.1c0.1,0,0.2,0,0.3,0c0.1,0.1,0,0.5,0,0.6c0,0.1,0.1,0.7,0.1,0.8c0,0.2,0.2,0.5,0.4,0.7
			c0.2,0.2,0,0.3,0.1,0.6c0.1,0.3,0.2,0,0.4-0.1c0.1-0.1,0.2-0.4,0.2-0.5c0-0.2,0-0.4,0.1-0.6c0.1-0.2,0.2-0.2,0.2-0.5
			c0.1-0.3,0-0.6-0.1-1c-0.1-0.4-0.1-0.1-0.2-0.2c-0.1-0.1-0.2-0.6-0.2-0.8c0-0.2-0.1-0.3-0.2-0.4
			C194.5,252,194.4,251.7,194.3,251.5z"/>
		<path class="st3" d="M192.5,252.6c0-0.1,0-0.4,0-0.6c-0.1-0.2-0.1,0.1-0.3,0.2C192.1,252.3,192.4,252.5,192.5,252.6
			C192.4,252.6,192.5,252.6,192.5,252.6z"/>
		<path class="st3" d="M193,253.3c0.1,0,0.1-0.2,0-0.4c-0.1-0.2-0.1-0.2-0.3-0.2c-0.2,0.1,0,0.2,0.1,0.5
			C192.9,253.2,192.9,253.3,193,253.3z"/>
		<path class="st3" d="M193.5,253.9c0-0.2-0.1-0.1-0.3-0.1c-0.2,0-0.1,0.1,0,0.5c0,0,0,0.2,0.2,0.1
			C193.6,254.3,193.5,254.1,193.5,253.9z"/>
		<path class="st3" d="M153.5,206.5c0.2-0.2-0.3-0.1-0.4,0c-0.1,0-0.2,0.2-0.1,0.3C153.1,206.8,153.4,206.7,153.5,206.5z"/>
		<path class="st3" d="M152.5,206.6c0.1-0.1-0.1-0.1-0.3-0.1c-0.2-0.1-0.1,0.2,0.1,0.3C152.2,206.8,152.4,206.7,152.5,206.6z"/>
		<path class="st3" d="M153.6,206.3c0.1-0.1-0.5,0-0.5,0.1l0.1,0.1C153.2,206.4,153.5,206.3,153.6,206.3z"/>
		<path class="st3" d="M159.1,206c0.2-0.1-0.3-0.1-0.4-0.1c-0.1,0-0.3-0.2-0.3-0.2c-0.1-0.1-0.1-0.1-0.2,0.1
			c-0.1,0.2,0.1,0.2,0.2,0.4C158.4,206.1,158.8,206.1,159.1,206z"/>
		<path class="st3" d="M158.9,206.1c-0.1,0-0.3,0.1-0.2,0.2c0,0,0.3,0.1,0.5,0.1c0.2,0.1,0.1-0.1,0.3-0.2c0.2-0.1,0.4,0,0.5-0.1
			c0.1-0.1-0.5-0.1-0.9,0C158.8,206.3,159,206.2,158.9,206.1z"/>
		<path class="st3" d="M161,206c0,0,0.1,0.1,0.2,0.1c0.2,0,0.2,0,0.4,0c0.2,0,0.1-0.2,0.1-0.2s0.1-0.3,0.2-0.3
			c0.1-0.1-0.1-0.2-0.2-0.1c-0.1,0.1-0.1,0.3-0.2,0.4c-0.1,0.1-0.2,0.1-0.2,0.1s-0.3-0.1-0.6,0C160.5,206,160.7,206,161,206z"/>
		<path class="st3" d="M139.1,229.9c-0.1-0.1-0.4,0-0.8,0c-0.4,0-0.5-0.1-0.8-0.1c-0.2,0-0.3,0.5-0.1,0.7c0.2,0.2,0.5,0.3,0.7,0.3
			c0.3,0.1,0.1,0.2,0.3,0.4c0,0,0.2,0.1,0.3,0c0.1-0.1,0.2-0.3,0.3-0.6C139.2,230.3,139.1,230,139.1,229.9z"/>
		<path class="st3" d="M135.3,229.3c0.1,0.1,0.1-0.1,0.3-0.2c0.2-0.1-0.1,0.2,0,0.4c0,0,0.1,0,0.2,0c0.1,0,0.1-0.2,0.1-0.4
			c0-0.2,0.1-0.2,0.3-0.3c0.1-0.1,0.1-0.2,0.1-0.4c0-0.2,0.1-0.6,0.1-0.7c0-0.1-0.3,0.2-0.5,0.4c-0.2,0.1-0.5,0.5-0.6,0.8
			C135.2,229.1,135.2,229.2,135.3,229.3z"/>
		<path class="st3" d="M136.5,227.4c0.1,0,0-0.2,0.1-0.3c0-0.1,0.2-0.4,0.2-0.6c0-0.2-0.2,0-0.3,0.1c-0.1,0.1-0.2,0.1-0.3,0.3
			C136.1,227,136.3,227.2,136.5,227.4C136.4,227.4,136.4,227.4,136.5,227.4z"/>
		<path class="st3" d="M143.9,233.1c0.2,0.1,0.2-0.1,0.3-0.2c0,0,0.2,0,0.5,0c0.3,0.1,0.6,0.2,0.8,0.1c0.3-0.1,0.3-0.3,0.2-0.5
			c-0.1-0.2-0.4-0.1-0.6-0.1c-0.2,0-0.2-0.1-0.3-0.1c-0.1,0-0.4,0-0.5,0c-0.1,0-0.3-0.1-0.5,0c-0.1,0.1,0.1,0.2-0.1,0.4
			C143.7,233,143.8,233.1,143.9,233.1z"/>
		<path class="st3" d="M145.4,229.9c0.1,0.1,0.2-0.1,0.4,0c0,0,0.1,0,0.2,0c0.1,0,0.1-0.2,0.1-0.4c-0.1-0.2-0.2-0.2-0.4-0.2
			c-0.2,0-0.1,0.2-0.1,0.4C145.5,229.8,145.3,229.8,145.4,229.9z"/>
		<path class="st3" d="M145.3,230.7c0,0,0.1,0,0.2-0.1c0.1,0,0.2-0.1,0.1-0.3c0-0.2-0.1-0.2-0.3-0.1
			C145.1,230.4,145.2,230.6,145.3,230.7z"/>
		<path class="st3" d="M143.7,231.9c0-0.1,0.1-0.2-0.2-0.2c-0.2,0-0.2,0.2-0.1,0.4C143.5,232.1,143.7,232,143.7,231.9z"/>
		<path class="st3" d="M144.8,231.7c0.2-0.1,0.1-0.1,0-0.2c-0.1-0.2-0.3,0-0.2,0.2C144.6,231.6,144.6,231.8,144.8,231.7z"/>
		<path class="st3" d="M145.8,231.9c0,0,0.2,0,0.2-0.2c0-0.2,0-0.2-0.2-0.1C145.6,231.6,145.6,231.8,145.8,231.9z"/>
		<path class="st3" d="M146.5,231.6c0-0.2-0.1-0.2-0.2-0.1c-0.1,0-0.1,0.1,0,0.2C146.3,231.6,146.5,231.7,146.5,231.6z"/>
		<path class="st3" d="M146.2,232.2c0,0,0.1,0,0.3-0.1c0.1-0.1,0-0.1-0.2-0.2C146.2,231.8,146.1,231.9,146.2,232.2z"/>
		<path class="st3" d="M147.1,232.3c0.1-0.2-0.2-0.3-0.3-0.3c-0.1-0.1-0.3,0.2-0.2,0.4c0,0,0,0.1,0.1,0.2
			C146.7,232.6,147,232.5,147.1,232.3z"/>
		<path class="st3" d="M146.4,232.3c-0.1-0.1-0.2,0.1-0.2,0.2c0,0,0.1,0.1,0.3,0C146.7,232.4,146.5,232.4,146.4,232.3z"/>
		<path class="st3" d="M149.7,232.8c-0.2,0,0,0.2,0,0.4c0,0.1,0,0.3,0.2,0.5c0,0,0.2,0,0.3-0.1c0.1-0.1,0.3-0.3,0.5-0.4
			c0.2-0.1,0.4-0.1,0.5-0.3c0-0.2,0.4-0.3,0.4-0.3c0.1,0-0.1-0.1-0.3-0.2c-0.2-0.1-0.3,0.1-0.5,0.2c-0.2,0.1-0.3,0.1-0.4,0
			c-0.1-0.2-0.3,0.1-0.3,0.2C150.2,232.8,149.9,232.8,149.7,232.8z"/>
		<path class="st3" d="M159.7,271.1c0,0,0.1,0,0.3,0c0.2,0,0.1-0.3,0-0.4c-0.1-0.2-0.4,0.1-0.6,0.2
			C159.3,271.1,159.7,271,159.7,271.1z"/>
		<path class="st3" d="M161.6,271.4c0.2,0.1,0.2-0.1,0.4-0.3c0.1-0.2,0-0.2-0.3-0.2c-0.3,0-0.3,0.1-0.2,0.3
			C161.4,271.3,161.4,271.3,161.6,271.4z"/>
		<path class="st3" d="M163,270c0.1-0.1,0.1-0.2-0.1-0.3c-0.1-0.1-0.2,0.2-0.1,0.4C162.7,270.1,162.9,270.1,163,270z"/>
		<path class="st3" d="M164.4,271.7c0-0.3-0.3-0.4-0.5-0.5c-0.2-0.1,0-0.7-0.1-0.8c-0.1-0.1-0.2,0.2-0.5,0.6c-0.3,0.4,0,0.5-0.2,0.7
			c-0.1,0.2-0.4,0.2-0.4,0.4c0,0.2,0.1,0.3-0.3,0.4c-0.4,0.1-0.3,0.2-0.5,0.3c-0.2,0.1-0.1-0.1-0.3-0.2c-0.1-0.1-0.1,0.2-0.4,0.4
			c-0.2,0.2-0.5,0.2-0.7,0.3c-0.2,0.1-0.3,0.2-0.5,0.2c-0.2,0-0.3,0.5-0.4,1c0,0-0.2,0.4-0.1,0.7c0.1,0.2,0.2,0.5,0.1,0.7
			c-0.1,0.2-0.3,0.6-0.4,0.9c-0.1,0.2-0.3,1.1-0.2,1.5c0.1,0.4,0.2,0.6,0.5,0.9c0.3,0.2,0.4,0.3,0.8,0.3c0.4,0,0.3-0.1,0.4-0.3
			c0.2-0.2,0.2-0.1,0.4-0.2c0.3-0.1,0.4-0.2,0.6-0.4c0.2-0.2,0.3-0.3,0.3-0.6c0.1-0.3,0.2-0.5,0.3-0.7c0.1-0.2,0.2-0.4,0.3-0.6
			c0.1-0.2,0.2-0.2,0.2-0.3c0-0.2,0-0.3,0.1-0.5c0.1-0.1,0.1-0.2,0.1-0.3c0-0.1,0.1-0.4,0.2-0.8c0.2-0.3,0.1-0.5,0-0.7
			c-0.1-0.2,0.2-0.1,0.3,0c0.1,0.1,0.2-0.1,0.3-0.4c0.1-0.3-0.2-0.2-0.3-0.2c-0.1,0-0.1,0,0-0.2c0.1-0.1,0.4-0.4,0.5-0.6
			c0.1-0.2,0.1,0.2,0.3,0.2c0.2,0,0.1-0.2,0.1-0.5C164.3,272.6,164.4,272,164.4,271.7z"/>
		<path class="st3" d="M131.3,258.1c0.1-0.1-0.1-0.3-0.2-0.3c-0.1,0-0.1-0.2-0.2-0.3c-0.1-0.1-0.2,0.2-0.2,0.5c0,0.2,0,0.2,0.1,0.4
			c0,0,0,0.1,0.1,0c0.1-0.1,0-0.1,0.1-0.2C131.1,258.1,131.2,258.2,131.3,258.1z"/>
		<path class="st3" d="M129.4,259.6c-0.1,0.1,0,0.4,0.2,0.5c0,0,0.2,0.1,0.2-0.1c0.1-0.2,0-0.3-0.1-0.4
			C129.6,259.4,129.5,259.4,129.4,259.6z"/>
		<path class="st3" d="M136.7,215.8c0.2-0.1,0.2-0.3,0.2-0.3c0,0-0.2-0.1-0.2-0.2c0-0.1-0.2-0.2-0.4-0.1c-0.2,0.1-0.4,0.4-0.5,0.5
			c-0.1,0.1-0.2,0-0.2,0c0-0.1-0.2,0-0.2,0.1c-0.1,0.1-0.2,0.1-0.3,0.2c-0.1,0-0.3,0.1-0.4,0.2c-0.1,0.1,0.2,0,0.3-0.1
			c0.1-0.1,0.3-0.1,0.4,0c0.1,0,0,0.1-0.1,0.3c0,0.1-0.3,0.4-0.3,0.6c0,0.2-0.3,0.5-0.3,0.5c0,0.1,0.2,0.1,0.3,0.2
			c0.1,0.1,0.1,0.1-0.1,0.2c-0.1,0.1-0.3,0.3-0.4,0.5c-0.1,0.2-0.5,0.3-0.6,0.4c-0.1,0.1-0.4,0.7-0.6,1c-0.2,0.3-0.1,0.3-0.4,0.4
			c-0.3,0.1-0.4,0-0.5,0.2c-0.1,0.1,0.3,0.3,0.5,0.3c0.2,0,0.3-0.1,0.5-0.3c0.2-0.1,0.2,0,0.4,0.1c0.2,0.1,0.6,0.2,0.9,0.2
			c0.3,0,0.3,0,0.6,0c0,0,0.3-0.2,0.3-0.3c0-0.1-0.1-0.2,0-0.3c0.1-0.1,0.3-0.1,0.5-0.2c0.3-0.1,0.2-0.2,0.2-0.3
			c0-0.1,0.2-0.1,0.4-0.3c0.2-0.1,0.1-0.2,0.1-0.4c-0.1-0.1-0.2-0.1-0.3-0.2c-0.1-0.1-0.2-0.2-0.2-0.3c-0.1-0.1,0.1-0.2,0.1-0.3
			c0-0.1-0.2,0.1-0.2,0c0-0.1,0.2-0.4,0.3-0.6c0-0.2-0.1-0.1-0.1-0.2c-0.1-0.1,0.3-0.3,0.4-0.4c0.1-0.1,0.3-0.5,0.3-0.6
			c0-0.1-0.1-0.1-0.2-0.1C136.5,216,136.6,215.9,136.7,215.8z"/>
		<path class="st3" d="M132.1,219.2c0.2,0,0.2,0.1,0.4,0.1c0.2,0,0.2-0.1,0.4,0c0,0,0.1,0,0.1-0.1c0,0,0.1-0.2,0.2-0.3
			c0.1-0.1,0.4-0.5,0.5-0.6c0.1-0.2,0.2-0.2,0.4-0.4c0.2-0.1,0.3-0.1,0.3-0.2c0.1-0.1,0-0.2,0-0.4c-0.1-0.1-0.2,0.1-0.3,0
			c-0.1,0,0-0.2,0-0.3c-0.1-0.1-0.1,0-0.3,0c-0.2,0.1-0.2,0.2-0.3,0.4c-0.1,0.2-0.2,0.1-0.3,0c-0.1-0.1-0.1-0.1-0.3,0
			c-0.3,0.1,0,0.2-0.1,0.4c-0.1,0.2-0.2,0.3-0.4,0.6c-0.2,0.3-0.2-0.2-0.3-0.1c-0.1,0-0.3,0.4-0.4,0.5c0,0.1,0,0.3,0.1,0.4
			C131.8,219.4,131.9,219.2,132.1,219.2z"/>
		<path class="st3" d="M131.4,218.8c-0.2,0.1,0,0.2,0.1,0.2c0,0,0.2-0.3,0.2-0.4C131.7,218.5,131.5,218.7,131.4,218.8z"/>
		<path class="st3" d="M134.8,216c0,0,0.1-0.1,0.1-0.2c0-0.1-0.1,0-0.2,0.1C134.6,216,134.8,216.1,134.8,216z"/>
		<path class="st3" d="M135.2,215.8c0.1-0.1,0-0.2,0-0.2s-0.2,0.1-0.2,0.2C135,215.9,135.1,215.9,135.2,215.8z"/>
		<path class="st3" d="M135.4,215.7c0,0,0.2,0,0.3-0.1c0.1-0.1,0.3-0.2,0.3-0.4c0.1-0.2-0.1-0.1-0.2,0c-0.1,0.1-0.2,0.2-0.3,0.2
			C135.4,215.5,135.4,215.6,135.4,215.7C135.3,215.6,135.3,215.7,135.4,215.7z"/>
		<path class="st3" d="M137.3,215.1c-0.1,0-0.2,0.1-0.3,0.3C137.1,215.4,137.3,215.2,137.3,215.1
			C137.5,215.1,137.4,215.1,137.3,215.1z"/>
		<path class="st3" d="M138.3,214.4c0,0.1,0,0.2-0.1,0.4c-0.1,0.2-0.2,0.2-0.1,0.3c0,0,0.2-0.1,0.3-0.2c0.1-0.1,0.3-0.2,0.4-0.3
			c0.1-0.1,0-0.2,0-0.3C138.8,214.1,138.3,214.3,138.3,214.4z"/>
		<path class="st3" d="M157.8,209.8c0.1,0.1,0.4,0.1,0.5,0.2c0,0,0.2,0,0.3-0.1c0.1,0,0,0-0.2-0.1c-0.2,0-0.4-0.1-0.5-0.2
			C157.8,209.6,157.7,209.7,157.8,209.8z"/>
		<path class="st3" d="M157.1,209.4c-0.1,0-0.2-0.1-0.3-0.2c-0.1-0.2-0.2-0.3-0.3-0.4c-0.1-0.1-0.2,0-0.5,0c-0.2,0-0.3,0.1-0.4,0.2
			c-0.1,0.1,0.1,0.2,0,0.2c-0.1,0,0,0.1,0.1,0.2c0.1,0.1,0.2,0,0.3,0.1c0.1,0.1,0,0.2,0.1,0.2c0.1,0,0.2,0,0.3-0.1
			c0.1-0.1,0-0.2,0.1-0.1c0.1,0,0,0.2,0.3,0.2c0,0,0.3,0,0.5-0.1c0.2,0,0.1,0,0.2-0.1C157.5,209.5,157.3,209.4,157.1,209.4z"/>
		<path class="st3" d="M155.7,208.2c0.1,0.1-0.1,0.2-0.2,0.3c-0.1,0.1,0.3,0,0.5,0c0,0,0.4,0,0.4,0c0.1,0,0-0.1,0.1-0.2
			c0-0.1,0.3-0.1,0.5-0.1c0.2,0-0.1-0.1-0.2-0.2c-0.1-0.1,0.2-0.2,0.3-0.3c0.2-0.1,0-0.2-0.1-0.3c-0.1-0.1,0.2-0.1,0.3-0.1
			c0.2,0,0.2,0,0.2-0.2c0-0.1,0.1,0.1,0.3,0.1c0.2,0-0.1-0.1-0.1-0.2c-0.1-0.1-0.3,0-0.4,0c-0.1,0-0.2-0.1-0.3-0.1
			c-0.1-0.1-0.1,0-0.2,0.1c-0.1,0.1-0.2,0.2-0.2,0.2c-0.1,0-0.3,0.1-0.4,0.1c-0.1,0.1,0.1,0.2,0,0.4c-0.1,0.1-0.2,0.1-0.4,0.1
			c-0.2,0-0.2,0-0.3,0.1C155.4,208,155.7,208.1,155.7,208.2z"/>
		<path class="st3" d="M137.9,210.7c0.1-0.2-0.4-0.1-0.5-0.1c-0.1,0-0.3,0.2-0.6,0.2c-0.3,0-0.2-0.1-0.4-0.1c-0.2,0-0.6,0.2-0.8,0.5
			c-0.2,0.2-0.7,0.6-0.6,0.7c0.1,0,0.3,0.2,0.6,0.2c0.3,0,0.3,0.1,0.5,0.1c0.2,0,0.3-0.1,0.4-0.2c0.1-0.1,0.2,0.1,0.6-0.1
			c0,0,0.4-0.2,0.5-0.4C137.8,211.3,137.8,210.9,137.9,210.7z"/>
		<path class="st3" d="M130.9,211.3c0.2-0.1,1.1-0.6,1.3-0.7c0.2-0.1,0.7-0.2,0.9-0.4c0.2-0.1,0.2-0.3,0.5-0.4
			c0.2-0.1,0.6-0.1,0.8-0.1c0.2-0.1,0.7-0.2,0.7-0.2s0.1,0.1,0.3,0c0.2-0.1,0.6-0.3,0.8-0.3c0.2-0.1,0.9-0.2,1-0.2
			c0.1,0,0.4-0.1,0.5,0c0,0.1,0.2,0.2,0.4,0.1c0.1,0,0.6-0.2,0.6-0.2l0.1,0.1c0.2-0.1,0.5-0.3,0.3-0.3c-0.2-0.1-0.1-0.2,0.1-0.2
			c0.1-0.1,0.6-0.2,0.5-0.1c-0.1,0.1,0,0.2,0.3,0.1c0.3-0.2,1.2-0.8,1.3-0.8c0.1,0,0,0.2,0.2,0.1c0.2-0.1,0.5-0.3,0.7-0.4
			c0.1-0.1,0.5-0.1,0.5-0.2c0-0.1,0.4-0.3,0.5-0.3c0.1,0,0.8-0.3,0.9-0.4c0.1-0.1,0.5-0.2,0.6-0.3c0.2-0.1,0.4-0.2,0.7-0.3
			c0.3-0.1,0.4-0.1,0.8-0.2c0.4-0.2,1-0.4,1.2-0.4c0.2,0,0.8,0,0.7-0.2c-0.1-0.2-0.5-0.3-0.9-0.4c-0.3-0.1-0.7,0-1.2-0.1
			c-0.4,0-0.2,0-0.7-0.1c-0.6-0.1-1,0-1.2,0.1c-0.3,0-1,0.2-1.2,0.3c-0.3,0.1-0.7,0.3-0.8,0.4c-0.1,0.2-0.1,0.2-0.6,0.3
			c-0.5,0.1-1.8,0.7-2,0.8c-0.2,0.1-0.7,0.2-0.9,0.4c-0.3,0.1-1.4,0.5-1.9,0.7c-0.5,0.3-1.1,0.5-1.6,0.7c-0.4,0.2-0.8,0.4-1.4,0.7
			c-0.5,0.3-1.4,0.8-1.7,1c-0.3,0.2-0.8,1-1,1.1C130.8,211.1,130.8,211.3,130.9,211.3z"/>
		<path class="st3" d="M148.3,207.1c0.1-0.1,0,0.1,0.1,0.1c0.1,0,0.1,0.2-0.1,0.4c-0.2,0.2,0.1,0.2,0.5,0.1c0,0,0.1-0.2,0-0.3
			c0-0.1,0.3-0.2,0.5-0.3c0.2-0.1,0.5-0.2,0.7-0.3c0.2-0.1-1.1-0.1-1.2-0.1c-0.1,0,0,0.3,0,0.3c-0.1,0.1-0.1-0.1-0.2-0.1
			c-0.1,0-0.2,0.1-0.2-0.2c0-0.2-0.1-0.2-0.2-0.1c-0.1,0.1,0.1,0.2-0.1,0.4C147.9,207.3,148.2,207.2,148.3,207.1z"/>
		<path class="st3" d="M149.7,207.2c-0.2,0-0.4,0.1-0.4,0.3c0,0,0.2,0,0.3,0c0.2,0,0.2,0.1,0.5-0.1
			C150.4,207.1,150,207.2,149.7,207.2z"/>
		<path class="st3" d="M131.8,228.4c-0.1,0-0.3,0.2-0.2,0.3c0.1,0.1,0,0.1,0,0.3c0,0,0.1,0,0.1,0c0.1,0,0.2-0.2,0.1-0.4
			C131.7,228.4,131.9,228.4,131.8,228.4z"/>
		<path class="st3" d="M132.2,229c0,0,0.1,0.1,0.3,0.1c0.1,0,0.1-0.2,0-0.3C132.4,228.6,132.2,228.9,132.2,229z"/>
		<path class="st3" d="M132.7,228.2c0-0.1-0.2,0-0.4,0.2c-0.2,0.2-0.1,0.2,0,0.2c0,0,0.2,0,0.3,0
			C132.8,228.5,132.8,228.3,132.7,228.2z"/>
		<path class="st3" d="M133.2,228.4c0.2-0.1,0.2-0.1,0.2-0.2c0.1-0.1,0-0.2-0.1-0.3c-0.1-0.1-0.4,0.2-0.3,0.4
			C133.1,228.3,133.1,228.5,133.2,228.4z"/>
		<path class="st3" d="M136,227.8c-0.1,0-0.3,0.2-0.2,0.3c0,0,0.1,0,0.2-0.1C136.1,227.9,136,227.8,136,227.8z"/>
		<path class="st3" d="M138.8,231.9c-0.1,0-0.2,0.2-0.2,0.3c0,0,0.1,0.1,0.2-0.1C139,232,138.9,231.9,138.8,231.9z"/>
		<path class="st3" d="M165.8,251.5c-0.1,0-0.1,0.2,0,0.2c0,0,0.2-0.1,0.2-0.2C166,251.4,165.9,251.5,165.8,251.5z"/>
		<path class="st3" d="M167.1,250.9c-0.2,0-0.6,0.2-0.4,0.5c0,0,0,0.1,0.2,0.2c0.1,0.1,0.2,0,0.4,0c0.2-0.1,0.2-0.1,0.1-0.3
			C167.3,251.2,167.2,250.9,167.1,250.9z"/>
		<path class="st3" d="M195,251c0-0.2-0.2-0.8-0.3-1c-0.1-0.2,0-0.8,0-1c0.1-0.2-0.1-0.3-0.3-0.5c-0.2-0.2-0.2-0.3-0.3-0.6
			c-0.1-0.3-0.2-0.1-0.3-0.1c-0.2-0.1-0.2-0.5-0.2-0.7c0-0.2-0.2-0.5-0.3-0.8c-0.1-0.3-0.1,0-0.2,0.1c-0.1,0.1-0.1-0.3-0.1-0.6
			c0-0.3,0.1-0.6,0.1-0.8c0-0.2,0-0.4-0.1-0.6c-0.1-0.2-0.1-0.5-0.1-0.8c0-0.2-0.2-0.6-0.1-0.7c0.1-0.1,0.1,0.3,0.3,0.3
			c0.1,0.1,0.2-0.2,0.3-0.1c0,0.1,0.3,1,0.6,1.2c0.3,0.1,0.3,0.1,0.5,0.3c0.1,0.2,0,1,0.1,1.2c0.1,0.2,0.1-0.2,0.2-0.7
			c0.1-0.5,0.1-0.7,0-1c-0.1-0.4,0.1-0.5,0.2-0.8c0.1-0.3,0-1.3-0.1-1.9c-0.1-0.6-0.5-1.6-1-2.4c-0.5-0.8-0.5-1-0.7-1.3
			c-0.2-0.4-0.3-0.7-0.4-1.1c-0.1-0.4,0-1,0-1.3c0-0.3,0.2-0.3,0.3,0c0.1,0.3,0.2,0.9,0.2,1.3c0,0.4,0.3,0.7,0.5,0.7
			c0.2,0,0-0.5,0-0.9c0-0.4-0.4-1.2-0.6-1.5c-0.1-0.3,0.1-0.2,0.1-0.6c0-0.4-0.1-0.6-0.1-0.9c-0.1-0.3,0.1-0.1,0.2-0.3
			c0-0.2-0.1-1.4-0.2-1.7c0-0.3-0.6-1.6-0.9-2.2c-0.3-0.6-1-2.3-1.2-2.8c-0.2-0.5-0.5-1.2-0.6-1.3c-0.1-0.1-0.9-0.8-1.1-1
			c-0.2-0.2-0.7-1-0.9-1.8c-0.2-0.7-0.2-0.4-0.7-0.5c-0.4-0.1-0.1,0.2-0.4-0.1c-0.3-0.3,0-0.7,0.2-0.8c0.2-0.1,0.2-0.2,0.3-0.6
			c0-0.1,0.1-0.3,0.1-0.4c-6-7.7-14.2-12.9-23.2-15.3c-0.3,0-1-0.1-1.5-0.1c-0.5-0.1-0.1,0.2,0.2,0.5c0.3,0.3,1.8,0.2,2.3,0.5
			c0.5,0.2,0.3,0.4-0.1,0.4c-0.3,0-0.7,0-0.9,0.3c-0.1,0.3-0.1,0.4-0.4,0.6c-0.3,0.1-1.2-0.7-1.5-0.9c-0.2-0.1-0.7,0.2-1.1,0.2
			c-0.4,0,0.3,0.3,0,0.5c-0.3,0.2-0.1-0.1-0.3-0.2c-0.2,0-0.4,0.1-0.6,0c-0.2,0-0.2,0.2-0.3,0.3c-0.1,0.1,0.1,0.1,0.3,0.1
			c0.2,0.1,0,0.3-0.2,0.4c-0.2,0.1,0.1,0.2,0.3,0.3c0.2,0.1,0.6,0,0.7,0c0.1,0.1-0.3,0.2-0.4,0.3c-0.2,0.1,0.2,0.2,0.4,0.3
			c0.1,0.1,0.3,0.1,0.6,0.2c0.3,0.1,0.8,0.4,0.8,0.6c0,0.1-0.8-0.4-1-0.5c-0.2-0.1-0.5,0-0.6,0c-0.1-0.1-0.1-0.2-0.4-0.2
			c-0.3,0,0,0.2,0.1,0.3c0.1,0.1,0.5,0.3,0.5,0.4c0,0.2-0.4,0-0.5-0.1c-0.1-0.1-0.4-0.3-0.5-0.5c-0.1-0.2-0.3-0.1-0.3,0
			c0,0.1,0.3,0.3,0.4,0.4c0.1,0.1,0.3,0.3,0.5,0.5c0.2,0.2,0.5,0.4,0.8,0.5c0.3,0.1,0.4,0,0.8,0c0.3,0,0.5,0.2,0.7,0.3
			c0.2,0.1,0.4,0.1,0.3,0.3c-0.1,0.2-0.6-0.3-0.8-0.4c-0.1-0.1-0.5-0.1-0.7-0.1c-0.2,0.1,0.4,0.4,0.4,0.8c0,0.4-0.3,0.1-0.3-0.2
			c0-0.3-0.4-0.6-0.7-0.8c-0.2-0.2-0.4-0.2-0.5-0.4c-0.1-0.2-0.3-0.3-0.7-0.5c-0.3-0.2-0.4-0.4-0.5-0.4c-0.1,0-0.2,0-0.3-0.1
			c-0.1-0.1-0.4-0.3-0.6-0.2c-0.2,0.1,0.3,0.1,0.2,0.4c0,0.2,0,0.3,0,0.4c-0.1,0.1,0,0.2,0.2,0.3c0.2,0.1,0.3,0.2,0.6,0.3
			c0.2,0.1,0.6,0.2,0.5,0.3c0,0.2,0,0.2-0.4,0.1c-0.4-0.1-0.3,0-0.6-0.1c-0.4,0-0.8,0-1.2,0.1c-0.3,0-0.3,0.1-0.1,0.2
			c0.2,0.1,0.2,0.2,0.2,0.4c0,0.2-0.3-0.1-0.5-0.1c-0.2,0-0.4,0.1-0.7,0.1c-0.2,0.1-0.3-0.1-0.3-0.2c-0.1-0.1-0.4,0.1-0.5,0.2
			c-0.2,0.1-0.4,0.1-0.6,0.2c-0.2,0.1-0.1-0.3-0.1-0.4c-0.1-0.1-0.1,0.1-0.3,0c-0.2,0-0.3-0.1-0.3,0c0,0.1,0.3,0.1,0.2,0.2
			c0,0.2,0.1,0.2,0.2,0.4c0.1,0.3-0.1,0.2-0.4,0.3c-0.3,0-0.1-0.1-0.1-0.4c0-0.3-0.2-0.4-0.5-0.4c-0.3,0-0.2,0-0.4,0
			c-0.2,0-0.4-0.1-0.4,0c0,0.1,0.3,0.1,0.3,0.3c0.1,0.1,0,0.3,0.2,0.4c0.1,0.1,0.2,0.3,0.3,0.4c0,0.2-0.4,0.1-0.5,0
			c-0.1-0.1-0.2,0-0.3,0c-0.1,0.1-0.2,0-0.5,0c-0.2,0,0,0.1-0.3,0.3c-0.3,0.2-0.3,0.2-0.5,0.2c-0.2,0-0.2-0.1-0.5,0
			c-0.3,0.1-0.2,0.2-0.1,0.4c0.1,0.2,0.3,0.3,0.3,0.4c0,0.1-0.5,0-0.7-0.2c-0.2-0.2,0-0.5,0-0.8c0-0.3-0.2-0.4-0.3-0.6
			c-0.1-0.2,0.3,0,0.5,0.2c0.2,0.2,0.3,0.1,0.7,0.1c0.4,0.1,0.5-0.1,0.6-0.3c0.1-0.2-0.1-0.3-0.4-0.4c-0.3-0.1-0.1-0.1-0.2-0.3
			c-0.1-0.2-0.2-0.3-0.4-0.3c-0.2-0.1-0.5-0.1-0.8-0.1c-0.2,0-0.3,0.1-0.4,0c-0.1-0.1,0-0.2-0.1-0.3c-0.1,0-0.3,0-0.5,0.1
			c-0.2,0.1-0.3,0-0.2,0c0.1-0.1,0.3-0.1,0.3-0.3c0-0.2-0.2-0.1-0.5-0.1c-0.2,0-0.2-0.1-0.3-0.1c-0.1-0.1-0.1,0.1-0.3,0.2
			c-0.2,0.1-0.3,0-0.4,0c-0.1,0-0.1-0.2-0.3-0.2c-0.2,0-0.5,0-0.6,0.1c-0.1,0.1,0.3,0.1,0.2,0.2c-0.1,0.1-0.2,0-0.2,0
			c-0.1,0-0.3,0-0.5,0.1c-0.1,0.1-0.6,0.1-0.8,0.2c-0.2,0.1-0.4,0-0.5,0.1c-0.1,0.1,0.2,0.2,0.1,0.3c-0.1,0.1-0.3,0.2-0.5,0.2
			c-0.2,0,0.1-0.3,0.1-0.4c0-0.1-0.1,0-0.3,0.1c-0.1,0.1-0.3,0.2-0.5,0.3c-0.1,0.1,0.1,0.3-0.1,0.5c-0.1,0.2-0.2-0.2-0.3-0.1
			c-0.2,0.1-0.2,0.4-0.4,0.4c-0.1,0-0.2,0-0.4,0.2c-0.2,0.1,0.2,0.1,0.2,0.2c0,0.1-0.2,0.1-0.3,0.2c-0.1,0.1-0.2,0.1-0.4,0.2
			c-0.1,0.1-0.2,0.2-0.4,0.3c-0.2,0.1-0.2,0.2-0.3,0.4c-0.1,0.2-0.2,0.1-0.3,0.3c-0.1,0.2-0.3,0.2-0.4,0.2c-0.1,0-0.2-0.1-0.4,0
			c-0.3,0.1-0.5,0.1-0.8,0.4c-0.3,0.2-0.1,0.3,0.1,0.3c0.2,0,0.2,0.1,0.1,0.2c-0.1,0.1-0.3-0.1-0.4-0.1c-0.1,0-0.2,0.1-0.3,0.2
			c-0.1,0.1,0.1,0.3,0.1,0.5c0,0.2-0.1,0.1-0.2,0c-0.1,0-0.3,0.2-0.5,0.3c-0.2,0.1,0.1,0.1,0.1,0.4c0,0.3-0.4,0.3-0.3,0.4
			c0.1,0.1,0.5,0.2,0.7,0.1c0.2,0,0.2-0.1,0.4-0.2c0.2-0.1,0.3-0.1,0.3-0.2c0.1-0.1,0.2-0.3,0.3-0.4c0.1-0.1,0.4-0.2,0.5-0.3
			c0.1-0.1,0.2-0.2,0.2,0c0,0.2-0.1,0.5-0.3,0.8c-0.2,0.3,0,0.3,0,0.6c0,0.3-0.1,0.7-0.1,0.9c0,0.3,0.3,0,0.6-0.1
			c0.3-0.1,0.6-0.4,0.8-0.5c0.2-0.2,0.4-0.1,0.4-0.3c0-0.2,0.2-0.3,0.3-0.4c0.2-0.1,0.1-0.2,0.1-0.4c0.1-0.2,0.4-0.4,0.4-0.5
			c0.1-0.1,0.4-0.2,0.5-0.3c0.1-0.1,0-0.2-0.1-0.4c-0.1-0.2,0-0.3,0.1-0.4c0.1-0.2,0.2-0.7,0.2-0.7c0,0,0.4-0.3,0.6-0.3
			c0.2-0.1,0.5-0.1,0.6-0.1c0.1-0.1,0-0.1,0.4-0.2c0.4-0.1,0.2-0.2,0.3-0.3c0-0.1,0.1-0.2,0.2-0.3c0.1-0.1,0.2-0.2,0.3-0.3
			c0.1-0.1,0.1,0,0.3,0c0.2,0,0.5,0.1,0.6,0.3c0,0.1-0.3,0.1-0.3,0.3c-0.1,0.1-0.1,0.1-0.3,0.1c-0.2,0-0.3,0.1-0.4,0.2
			c-0.1,0.1-0.5,0.3-0.7,0.5c-0.2,0.2-0.2,0.2-0.1,0.3c0,0.1,0,0.2,0,0.4c0,0.2-0.2,0.3-0.3,0.5c-0.1,0.1,0.1,0.4,0.1,0.5
			c0.1,0.2,0.3,0.1,0.6,0.1c0.3-0.1,0.6-0.2,0.9-0.4c0.3-0.1,1.1,0,1.2,0.1c0.2,0,0.1,0.1,0,0.3c-0.1,0.1-0.7,0.2-0.8,0.2
			c-0.2,0-0.7-0.1-0.9-0.1c-0.2,0.1-0.4,0.1-0.6,0.1c-0.2,0.1-0.3,0.2-0.3,0.4c0,0.1,0.1,0.2,0.1,0.2c0,0,0.2,0.1,0.4,0
			c0.2,0,0.1,0,0,0.2c-0.1,0.1-0.1,0.3-0.3,0.5c-0.2,0.2-0.2,0-0.3-0.1c-0.1,0-0.2-0.1-0.3-0.2c-0.1-0.1-0.1,0-0.2,0.1
			c-0.1,0.1-0.3,0.2-0.4,0.4c-0.1,0.1-0.1,0.3-0.3,0.4c-0.2,0.1-0.1,0.3-0.2,0.4c-0.1,0.2-0.3,0.3-0.5,0.4c-0.2,0.1-0.2,0.3-0.2,0.3
			c0,0.1-0.3,0.2-0.5,0.1c-0.1,0,0.1-0.1,0.1-0.2c0.1-0.1-0.2-0.1-0.3,0c-0.2,0-0.5,0.1-0.6,0.1c-0.1,0-0.7,0.1-0.8,0.1
			c-0.1,0-0.3,0.1-0.4,0.2c-0.1,0.1,0-0.2,0-0.3c0-0.1-0.2-0.1-0.3-0.1c-0.1,0-0.4,0-0.5,0c-0.1,0-0.3,0.1-0.4,0.1
			c-0.1,0-0.3-0.1-0.4-0.3c-0.1-0.1-0.1-0.4-0.1-0.5c0-0.1-0.1,0.1-0.2,0.1c-0.1,0.1-0.4,0.2-0.4,0.3c-0.1,0.2,0.2,0.4,0.1,0.6
			c-0.1,0.1-0.2,0.1-0.4,0.1c-0.2,0-0.4-0.1-0.6-0.2c-0.1-0.1-0.3,0.2-0.4,0.3c-0.1,0.1-0.4,0.2-0.5,0.2c-0.1,0-0.2,0-0.3,0
			c-0.1,0.1-0.1,0.1-0.2,0.4c-0.1,0.2-0.1,0.3-0.2,0.4c-0.1,0.1-0.1,0.1-0.2,0.1c-0.2-0.1-0.6,0.1-0.9,0.2c-0.3,0.1-0.6,0.3-0.7,0.4
			c-0.1,0.1-0.2,0.1-0.3,0.3c-0.1,0.2-0.2,0.2-0.5,0.1c-0.3,0-0.7-0.2-0.8-0.2c-0.1,0-0.2,0.3-0.3,0.4c-0.1,0.1-0.1,0-0.2,0
			c-0.1,0-0.1,0.1-0.2,0c-0.1-0.1-0.2-0.1-0.2-0.1c-0.1,0.1-0.3,0.1-0.4,0.2c0,0.1-0.2,0.2-0.3,0.3c-0.1,0.1-0.1,0.1,0.2,0.2
			c0.2,0.1,0.1,0.1,0.2,0.2c0.1,0.2,0.1,0,0.2,0c0.1,0,0.1,0,0.2,0.2c0.1,0.2,0.1,0.1,0.1,0.2c0,0.1-0.1,0.2-0.1,0.4
			c0,0.2,0,0.3-0.1,0.5c0,0.2-0.2,0.2-0.1,0.3c0.1,0.1,0.1,0.2,0,0.3c-0.1,0.1-0.1,0-0.1-0.1c0-0.1-0.1-0.1-0.1-0.1
			c-0.1,0.1-0.2,0.1-0.2,0.2c-0.1,0.1,0,0.2,0,0.2c0,0.2-0.2,0.1-0.4,0.3c-0.2,0.1-0.1,0.5-0.7,0.4c-0.5-0.1-0.4-0.2-0.5-0.3
			c-0.2,0-0.4-0.1-0.5-0.3c-0.1-0.2-0.2-0.2-0.3-0.2c-0.2,0-0.5-0.2-0.7-0.1c-0.2,0.1-0.2,0.1-0.3,0c-0.1-0.1-0.2,0-0.3,0.2
			c-0.1,0.2-0.2,0.5-0.3,0.8c-0.1,0.3-0.5,1-0.9,1.6c-0.4,0.6-0.7,0.9-0.7,1.3c0,0.3-0.1,0.5-0.2,0.7c-0.1,0.2,0.1,0.2,0.3,0.2
			c0.2,0,0.4,0,0.4,0.1c0.1,0.1,0,0.7,0.1,0.8c0.1,0.2,0.3-0.1,0.4-0.2c0.1-0.1,0.3-0.1,0.5-0.1c0.2,0,0.4,0.2,0.7,0.2
			c0.4,0,0.7,0,0.9-0.1c0.2-0.1,0.3-0.4,0.4-0.4c0.1-0.1,0.7-0.4,0.9-0.5c0.1-0.1,0.2-0.7,0.3-1c0.1-0.3,0.3-0.3,0.6-0.4
			c0.2-0.1,0.7-0.2,0.9-0.3c0.2,0,0.7-0.5,0.7-0.7c0-0.2,0.1-0.3,0.5-0.5c0.4-0.1,0.5,0,0.8,0c0.4,0,0.5,0.1,0.6,0
			c0.2-0.1,0.4-0.1,0.6-0.1c0.2,0,0.6-0.2,0.7-0.2c0.1,0,0.3,0.1,0.4,0.1c0.1,0,0-0.2,0.1-0.3c0.1-0.1,0.1,0.1,0.3,0.3
			c0.2,0.2,0.2,0.4,0.3,0.6c0.1,0.2,0.4,0.4,0.5,0.7c0.2,0.3,0,0.4,0.3,0.4c0.2,0.1,0.3,0.1,0.6,0.4c0.3,0.3,0.6,0.8,0.7,1.1
			c0,0.3-0.3,0.9-0.5,1.1c-0.2,0.2,0.1,0.2,0.3,0.1c0.3-0.1,0.4-0.1,0.5-0.3c0.1-0.2,0.1-0.4,0.2-0.5c0.1-0.1,0.4-0.2,0.4-0.4
			c0-0.2-0.2-0.2-0.3-0.3c-0.1-0.1,0.2-0.4,0.3-0.5c0.1-0.1,0.4,0.3,0.5,0.5c0.1,0.2,0.4-0.1,0.4-0.3c-0.1-0.1-0.2-0.5-0.5-0.6
			c-0.2-0.1-0.4-0.1-0.5-0.3c-0.1-0.2-0.2-0.4-0.3-0.6c-0.1-0.2-0.7-0.3-0.8-0.4c-0.1-0.1-0.1-0.8,0-1c0-0.2-0.3-0.1-0.5-0.2
			c-0.2-0.1-0.1-0.3,0-0.3c0.1,0,0.2-0.4,0.1-0.5c-0.1-0.1,0.1-0.1,0.3,0c0.3,0.1,0.1,0.2,0,0.3c-0.1,0.2,0.2,0.3,0.3,0.3
			c0.1,0,0.2-0.2,0.2-0.4c0-0.2,0.1,0,0.3,0.2c0.2,0.2,0.1,0.3,0.3,0.5c0.1,0.2-0.1,0.3-0.2,0.5c-0.1,0.2,0.1,0.1,0.3,0.2
			c0.3,0.1,0.1,0.1,0.4,0.2c0.3,0.1,0.4,0.2,0.6,0.3c0.2,0.1,0.5,0.2,0.7,0.4c0.2,0.2,0.1,0.3,0.1,0.6c-0.1,0.3,0,0.5,0,1
			c0,0.4,0.1,0.1,0.3,0.4c0.2,0.3,0.2,0.4,0.3,0.6c0.1,0.2,0.1,0.2,0.3,0.3c0.1,0,0.5,0,0.5,0.2c0,0.2-0.3,0-0.6,0.1
			c-0.3,0.1-0.2,0.1-0.3,0.4c0,0.3,0.1,0.1,0.2,0.5c0.2,0.4,0,0.3,0.1,0.3c0.1,0,0.2-0.1,0.3,0.1c0.1,0.2,0.1,0.2,0.3,0
			c0.2-0.1,0.3-0.1,0.3-0.2c0-0.1,0-0.2,0.2-0.2c0.2,0.1,0.2-0.1,0.2-0.3c0-0.2,0-0.3-0.1-0.2c-0.1,0-0.2,0.4-0.4,0.2
			c-0.2-0.1,0.4-0.3,0.5-0.3c0.1-0.1,0.1-0.2,0.3-0.1c0.2,0,0.3,0,0.3-0.3c-0.1-0.3-0.3-0.4-0.8-0.9c-0.5-0.5,0.1-0.6,0.5-0.8
			c0.4-0.2,1.3-0.3,1.4-0.3c0.1,0,0.1,0.3-0.1,0.4c-0.2,0.1-0.2,0.3-0.2,0.4c0,0.1,0.3,0.2,0.3,0.2c0.1,0,0.2,0,0.3,0.3
			c0.1,0.3-0.2,0.5-0.3,0.5c-0.1,0-0.2,0.4-0.2,0.5c0,0.2,0.5,0,0.7,0c0.2,0,0.1,0.2,0.2,0.5c0.1,0.2,0.2,0.2,0.2,0.5
			c0.1,0.2-0.2,0.2,0.1,0.3c0.3,0.1,0.4,0,0.6,0c0.3,0,1,0.2,1.2,0.1c0.2-0.1,0.4-0.3,0.6-0.4c0.2-0.1,0.5,0.4,0.7,0.5
			c0.3,0.1,0.7-0.1,0.8-0.2c0.1-0.1,0.2-0.1,0.5-0.1c0.3,0,0.4,0,0.5-0.2c0-0.2,0.2-0.3,0.3,0c0,0.3-0.1,0.2-0.2,0.4
			c-0.1,0.2,0,0.3,0.1,0.6c0.1,0.3,0,0.6,0,0.8c0,0.2-0.1,0.3-0.1,0.5c-0.1,0.2-0.1,0.1-0.2,0.3c-0.1,0.2-0.2,0.4-0.1,0.7
			c0.1,0.3-0.2,0.5-0.4,0.8c-0.2,0.3-0.4,0.5-0.5,0.5c-0.2,0-0.6-0.1-0.8-0.2c-0.1-0.1-0.5-0.5-0.7-0.5c-0.3,0-1.3,0.3-1.7,0.5
			c-0.4,0.2-1.1-0.2-1.3-0.3c-0.3-0.2-0.6-0.1-0.9,0c-0.3,0.1-0.4-0.3-0.7-0.5c-0.3-0.2-0.6-0.1-0.9-0.1c-0.3,0-0.3-0.4-0.4-0.5
			c-0.1-0.2-0.9-0.2-1.3-0.2c-0.4,0-0.4,0-0.4,0.3c0,0.2-0.1,0.8-0.2,1.1c-0.1,0.3-0.7,0.4-0.8,0.4c-0.2,0-0.6-0.3-0.8-0.3
			c-0.2,0-0.4,0-0.5-0.1c-0.1-0.1-0.2-0.1-0.5-0.2c-0.3-0.1-0.3-0.5-0.3-0.8c0-0.3-0.4-0.4-0.8-0.7c-0.4-0.3-0.9,0-1,0.1
			c-0.1,0.1-0.6-0.1-1-0.6c-0.4-0.5,0.3-0.6,0.2-0.8c0-0.2,0.3-0.3,0.5-0.5c0.2-0.2,0-0.4-0.2-0.6c-0.2-0.2,0.1-0.5,0.4-0.8
			c0.3-0.3-0.3-0.2-0.4-0.3c-0.1,0,0.1-0.3,0-0.4c-0.1-0.1-0.3,0-0.3,0.2c0,0.2-0.3,0.2-0.5,0.3c-0.2,0.1-0.4,0.3-0.5,0.2
			c-0.2-0.1-0.1-0.2-0.4-0.3c-0.3-0.1-0.7,0.1-0.9,0.2c-0.2,0.1-0.3,0-0.3-0.1c-0.1-0.2-0.2-0.2-0.7-0.3c-0.5-0.1-1,0-1.5,0.1
			c-0.4,0.1-1.3,0.4-1.7,0.5c-0.3,0.2-0.9,0-1.3-0.1c-0.4-0.2-0.6-0.4-0.7-0.6c-0.1-0.3-0.1-0.1-0.3,0.1c-0.2,0.2-0.2,0.2-0.4,0.5
			c-0.2,0.3-0.3,0.3-0.5,0.5c-0.2,0.2-0.4,0.2-0.5,0.3c-0.1,0.1-0.5,0.2-0.7,0.3c-0.2,0.1-0.1,0.5-0.3,0.7c-0.2,0.2-0.4,0.5-0.5,0.8
			c-0.1,0.3-0.1,0.3,0,0.6c0.1,0.2-0.1,0.2-0.2,0.2c-0.1,0-0.2,0-0.4,0.3c-0.2,0.3-0.4,0.3-0.6,0.3c-0.2,0-0.1,0.2-0.4,0.3
			c-0.3,0.2-0.5,0.1-0.7,0.3c0,0-0.5,0.4-0.8,0.7c-0.3,0.3-0.8,1-1,1.3c-0.2,0.3-0.5,0.8-0.6,0.9c-0.1,0.1-0.4,0.6-0.6,0.9
			c-0.3,0.3-0.4,0.4-0.4,0.6c0,0.2,0.3,0.9,0.2,0.9c0,0.1-0.2,0.6-0.2,0.8c0,0.3-0.1,0.5-0.2,0.8c-0.1,0.3-0.2,0.5-0.2,0.7
			c0,0.2-0.1,0.4-0.3,0.5c-0.2,0.1-0.1,0.5-0.2,0.7c-0.2,0.2-0.3,0-0.4,0.2c-0.1,0.2,0,0.5,0,0.8c0,0.3-0.1,0.7-0.1,0.8
			c0,0.1,0.1,0.5,0.1,0.9c0,0.4,0.2,0.5,0.3,0.7c0.1,0.2,0.1,0.4,0.2,0.7c0.1,0.2,0.1,0.5,0.1,0.8c0,0.3,0.3,0.3,0.5,0.6
			c0.2,0.3-0.1,0.7,0,1c0,0.2,0.1,0.8,0.1,1.1c0,0.3,0.5,0.5,0.8,1c0.3,0.4,0.6,0.8,1,1.5c0.4,0.7,0.7,0.6,1.1,0.7
			c0.3,0.1,0.4-0.2,0.7-0.3c0.3-0.2,0.2,0.1,0.4,0.2c0.3,0.1,0.5,0.1,0.7,0.1c0.2,0,0.2-0.1,0.4-0.1c0.2,0,0.2,0.2,0.4,0.5
			c0.2,0.3,0.3,0.1,0.8,0.2c0.5,0.1,0.6,0,0.9-0.1c0.3-0.1,1.1-0.5,1.2-0.5c0.1,0,0.3-0.1,0.6-0.1c0.3,0,0.2,0.1,0.2,0.3
			c0.1,0.2,0.2,0,0.5,0c0.2,0,0.3,0,0.5,0.2c0.2,0.2,0.4,0.7,0.5,1.1c0.1,0.3,0.2,0.5,0.5,0.6c0.2,0.1,0.6-0.1,1-0.1
			c0.4,0,0.6-0.1,0.9,0.1c0.2,0.2,0.3,0.8,0.3,0.9c0.1,0.1,0.4,0,0.5,0.2c0.1,0.2-0.2,0.5-0.2,0.8c-0.1,0.2,0,0.5,0,0.8
			c0,0.3,0,0.5-0.1,0.8c0,0.3,0,0.3-0.3,0.5c-0.3,0.1-0.2,0.2-0.1,0.4c0.1,0.2,0.3,0.3,0.4,0.6c0.1,0.3-0.2,0.3-0.1,0.4
			c0.1,0.2,0.2,0.1,0.3,0.1c0.2,0,0.3,0.2,0.3,0.4c-0.1,0.2,0.2,0.4,0.3,0.6c0.1,0.2,0.3,0.2,0.7,0.3c0.3,0.1,0.6,0.3,0.7,0.6
			c0.1,0.3,0,0.3,0.1,0.6c0.1,0.2,0,0.4,0,0.6c0,0.1,0.2,0.3,0.4,0.5c0.2,0.2,0.1,0.2,0.1,0.4c0,0.2,0.1,0.1,0.2,0.3
			c0.1,0.2,0.2,0.5,0.1,0.6c-0.1,0.1-0.1,0.4,0,0.6c0.1,0.1,0.3,0.2,0.3,0.3c0.1,0.2,0.4,1.2,0.5,1.3c0.1,0.2,0.1,0.4-0.1,0.6
			c-0.1,0.1-0.5,0.4-0.6,0.7c-0.1,0.3,0,0.4,0.1,0.7c0.1,0.3-0.1,0.2-0.2,0.5c-0.1,0.3-0.1,0.3-0.1,0.6c0,0.3,0,0.3,0.2,0.9
			c0.2,0.6,0.5,0.5,0.7,0.8c0.3,0.3,0.1,0.4,0.2,0.6c0.1,0.2,0.6,0.6,1,1.2c0.5,0.6,0.3,0.5,0.3,0.7c0,0.2,0,0.2,0.3,0.6
			c0.2,0.4,0.6,0.7,0.6,1.2c-0.1,0.4,0.2,0.3,0.3,0.7c0.1,0.4,0.8,0.8,1.2,1.1c0.4,0.4,0.6,0.5,1,1.2c0.4,0.6,0.8,0.8,0.9,0.9
			c0.1,0.1,0.1,0.2-0.1,0.2c-0.2,0-0.2,0.1-0.1,0.3c0.1,0.1,0.2,0.3,0.3,0.5c0.1,0.3,0.3,0.1,0.5,0.2c0.2,0.1,0.5,0.2,0.7,0.2
			c0.2,0,0.8-0.1,1.1-0.1c0.4,0,0.5,0.2,1,0.2c0.5,0,0.4,0,0.9,0c0.6,0.1,1.9-0.2,2.1-0.5c0.2-0.2,0.7-0.6,1.1-0.8
			c0.4-0.2,1.1-0.6,1.3-0.7c0.2-0.1,0.1-0.3,0.1-0.5c0-0.3,0.2-0.4,0.3-0.7c0.1-0.3,0.2-0.4,0.1-0.7c-0.1-0.3,0.2-0.2,0.5-0.4
			c0.3-0.2,1.1-0.4,1.4-0.5c0.2-0.1,0.2-0.1,0.1-0.3c-0.1-0.2,0.1-0.7,0.1-1c0-0.3,0-0.4-0.1-0.3c-0.1,0.1-0.2,0-0.3-0.4
			c-0.2-0.4-0.2-0.5-0.2-0.7c0.1-0.2,0.9-0.3,1.1-0.5c0.3-0.2,0.3-0.2,0.5-0.5c0.3-0.2,0.5-0.4,0.6-0.5c0.1-0.1,0.4-0.2,0.7-0.3
			c0.3-0.2,0.5-0.3,0.6-0.4c0.1-0.1,0.2,0.1,0.4,0c0.2-0.1,0.6-0.4,1-0.6c0.4-0.2,0.3-0.6,0-0.8c-0.2-0.2-0.2-0.3-0.2-0.7
			c0-0.4,0-0.3-0.1-0.3c-0.1,0-0.1-0.1-0.1-0.3c0.1-0.2,0-0.4,0-0.6c-0.1-0.2-0.1-0.4-0.1-0.6c0-0.3-0.2-0.5-0.4-0.6
			c-0.2-0.1-0.3-0.3-0.3-0.6c0-0.2-0.4-0.1-0.5-0.3c-0.1-0.2,0-0.8,0.1-1c0.1-0.2-0.1-0.5-0.3-0.6c-0.2-0.1-0.1-0.6,0.1-1
			c0.2-0.4,0.5-0.5,0.7-0.7c0.3-0.2,0.6-0.7,0.8-0.8c0.2-0.1,0.4-0.4,0.3-0.7c0-0.3,0.2-0.3,0.4-0.4c0.2-0.1,0.2-0.3,0.2-0.5
			c0-0.2,0.1-0.2,0.4-0.3c0.3-0.2,0.6-0.5,0.8-0.8c0.1-0.3,0.6-0.5,1.1-0.8c0.4-0.3,0.6-0.6,0.6-0.7c0-0.2,0.2-0.4,0.6-0.5
			c0.4-0.1,0.9-0.4,1.1-0.7c0.2-0.3,0.5-0.9,0.7-1.3c0.2-0.4,0.7-1,0.6-1.4c-0.1-0.4,0.2-0.8,0.5-1c0.3-0.3,0.1-0.5,0.2-0.8
			c0.1-0.4,0.4-0.2,0.5-0.5c0.1-0.2-0.1-0.6-0.1-0.7c0-0.1,0.4-0.3,0.5-0.4c0.1-0.1,0-0.3-0.2-0.4c-0.2-0.1-0.1-0.3-0.2-0.6
			c-0.1-0.3-0.3-0.3-0.5-0.1c-0.2,0.1-0.4,0.2-0.6,0.4c-0.2,0.1-0.3,0.1-0.5,0.2c-0.2,0.1-0.6,0.1-1.4,0.2c-0.7,0.1-1.8,0.1-2.4,0.2
			c-0.6,0.1-0.7-0.1-0.9-0.3c-0.2-0.2-0.1-0.5-0.2-0.9c0-0.4-0.2-0.5-0.4-0.4c-0.3,0-0.4-0.2-0.6-0.7c-0.2-0.4-0.5-0.6-0.8-0.7
			c-0.3-0.2-1-0.1-1.2-0.2c-0.2-0.1-0.1-0.3-0.2-0.5c-0.1-0.2-0.2-0.9-0.3-1.3c-0.1-0.4-0.5-0.7-0.8-0.8c-0.3-0.1-0.3-0.6-0.3-1
			c0-0.4,0.1-0.8,0-0.9c0-0.1-0.1-0.4,0-0.5c0.1-0.1-0.1-0.3-0.3-0.3c-0.2,0-0.1-0.5-0.2-0.7c-0.1-0.2-0.3-0.4-0.5-0.5
			c-0.2-0.1-0.5-0.1-0.6-0.3c-0.1-0.2,0.2-0.3,0.3-0.3c0.1,0-0.3-0.3-0.5-0.5c-0.2-0.2-0.2-0.2-0.3-0.4c-0.1-0.1-0.1-0.2-0.1-0.4
			c-0.1-0.2,0-0.2-0.1-0.4c-0.1-0.2,0-0.3-0.2-0.6c-0.1-0.3-0.2-0.4-0.3-0.5c-0.1-0.1-0.2-0.3-0.2-0.6c-0.1-0.3-0.2-0.4-0.4-0.5
			c-0.1-0.1-0.3-0.6-0.5-0.8c-0.1-0.2-0.1-0.3,0.1-0.2c0.1,0.1,0.2,0.1,0.5,0.3c0.3,0.1,0.1,0.3,0.3,0.6c0.2,0.3,0.3,0.2,0.5,0.1
			c0.2-0.1,0-0.7,0.1-0.9c0.1-0.2,0.3-0.2,0.3,0c0,0.2-0.3,0.4-0.1,0.7c0.1,0.3,0.4,0.5,0.8,0.9c0.3,0.4,0.9,0.7,1.1,1.3
			c0.2,0.6,0,0.8,0.1,1.1c0.1,0.3,0.5,0.1,0.9,0.3c0.4,0.2,0.2,0.3,0.3,0.5c0.1,0.2,0.3,0.3,0.4,0.5c0.1,0.2-0.2,0.9-0.1,1.3
			c0.1,0.4,0.5,0.8,0.9,1c0.4,0.3,1,1.1,1.1,1.3c0.1,0.2,0.4,0.5,0.5,1c0.1,0.4,0.7,1,0.8,1.2c0.1,0.3-0.2,0.1-0.3,0.1
			c-0.1,0-0.2,0.5-0.1,0.7c0.1,0.2,0.3,0.4,0.6,0.7c0.2,0.3,0.1,0.7,0.3,1c0.2,0.3,0.5,0.2,0.9,0c0.4-0.2,0.6-0.4,0.8-0.5
			c0.2-0.1,0.6,0,1-0.2c0.3-0.2,0.7-0.4,1-0.4c0.4,0,0.5-0.2,0.8-0.4c0.3-0.2,0.6-0.4,1-0.6c0.4-0.2,0.9-0.3,1.1-0.4
			c0.2-0.1,0.3-0.3,0.5-0.6c0.1-0.3,0.3-0.3,0.5-0.4c0.2-0.1,0.3-0.1,0.4-0.2c0.1,0,0.2-0.1,0.5-0.3c0.3-0.2,0.6-0.1,0.9-0.3
			c0.2-0.2,0.1-0.3,0.6-0.4c0.5-0.1,0.3-0.1,0.3-0.4c0-0.3,0-0.3,0.2-0.6c0.2-0.2,0.5,0.1,0.7,0.1c0.2,0,0.1-0.1,0.1-0.5
			c0-0.3-0.3-0.7-0.4-0.9c-0.1-0.2-0.1-0.3,0.1-0.4c0.2-0.1,0.3,0.1,0.4,0.2c0.2,0,0.1-0.4,0-0.7c-0.1-0.3,0.2-0.4,0.3-0.7
			c0.1-0.3,0-0.3-0.2-0.6c-0.2-0.3-0.4-0.7-0.6-0.7c-0.2,0-1.4-0.2-1.5-0.3c-0.1-0.1-0.2-0.8-0.3-1.3c-0.1-0.5-0.5-0.3-0.7-0.2
			c-0.2,0.1-0.3,0.8-0.7,1.3c-0.4,0.5-0.7,0.1-1,0.2c-0.3,0.1-0.8,0.2-1,0c-0.2-0.2,0.1-0.3,0.1-0.7c0-0.3-0.3-0.4-0.5-0.3
			c-0.2,0.2-0.3,0.5-0.4,0.5c-0.1,0-0.1-0.5,0.1-0.6c0.2-0.1,0.1-0.2,0-0.5c-0.1-0.2-0.2,0-0.5-0.1c-0.2-0.1,0.1-0.2,0-0.4
			c-0.1-0.2-0.2-0.3-0.5-0.3c-0.2,0-0.2-0.2-0.3-0.5c-0.2-0.4-0.2-0.3-0.5-0.5c-0.3-0.3-0.4-0.4-0.5-0.7c-0.1-0.3-0.1-0.3,0-0.3
			c0.1,0,0.4-0.1,0.3-0.2c-0.1-0.1,0.1-0.5,0.3-0.4c0.3,0.1,0,0.3,0.1,0.4c0.1,0.1,0.4-0.2,0.7-0.1c0.3,0.1,0.2,0.5,0.4,0.8
			c0.2,0.4,0.3,0.8,0.5,0.9c0.2,0.2,0.4,0.1,0.7,0.2c0.3,0.2,0.4,0.4,0.7,0.5c0.3,0.1,0.8,0,1.1,0c0.4,0,0.5-0.5,0.8-0.5
			c0.2,0,0.5,0.3,0.7,0.6c0.2,0.4,0.6,0.4,0.9,0.5c0.3,0.1,0.4,0,0.8,0.2c0.4,0.1,1,0.2,1.4,0.2c0.4,0,0.4-0.2,0.6-0.4
			c0.3-0.1,0.6-0.2,0.9-0.2c0.3,0,0.4,0,0.8-0.1c0.4-0.1,0.8-0.3,1-0.3c0.2,0,0.3,0.3,0.4,0.4c0.1,0.1,0.2,0.1,0.3,0.2
			c0,0.1,0.3,0.4,0.6,0.5c0.2,0.1,0.4,0.2,0.6,0.3c0.2,0.1,0.1,0.1,0.3,0.2c0.2,0.1,0.5-0.2,0.7-0.1c0.1,0.1-0.1,0.2-0.3,0.5
			c-0.2,0.3-0.1,0.4,0,0.5c0.1,0.1,0.4,0.1,0.5,0.2c0.2,0.1,0.2,0.3,0.4,0.3c0.2,0.1,0.2-0.2,0.3-0.4c0.1-0.2,0.2-0.1,0.3-0.3
			c0.1-0.2-0.1-0.5-0.2-0.6c-0.1-0.2,0.2-0.2,0.3-0.1c0.1,0,0.1,0.4,0.2,0.5c0.1,0.1-0.1,0.3-0.1,0.5c0,0.2,0.2,0.3,0.2,0.6
			c0.1,0.3,0.3,1,0.4,1.6c0.1,0.6,0.4,0.8,0.5,1c0.1,0.2,0.1,0.5,0.3,0.7c0.1,0.2,0.3,0.4,0.5,0.7c0.1,0.3,0.5,0.6,0.6,0.9
			c0.2,0.4,0.2,0.6,0.4,0.9c0.2,0.3,0.4,0.8,0.7,1.1c0.3,0.3,0.6,0.8,0.6,1c0.1,0.2,0.3,0.5,0.5,0.8c0.2,0.3,0.4,0.1,0.6,0
			c0.2-0.1,0.1-0.3,0.2-0.6c0.1-0.3,0.2-0.1,0.3-0.2c0.1-0.2,0.3-0.3,0.2-0.5c-0.1-0.2-0.1-0.4,0.1-0.6c0.2-0.2,0.2-0.1,0.2-0.3
			c0-0.2-0.1-0.4-0.2-0.7c-0.1-0.2,0.2-0.7,0.2-0.9c0-0.1,0-0.5-0.1-0.7c0-0.2,0-0.4-0.1-0.6c-0.1-0.2-0.1-0.2-0.1-0.5
			c0-0.3-0.1-0.5-0.1-0.7c0-0.2,0.2-0.4,0.4-0.7c0.2-0.3,0.2-0.6,0.2-0.8c0-0.2,0.2-0.2,0.3-0.2c0.1-0.1,0.1-0.3,0.2-0.5
			c0-0.2,0.3-0.6,0.3-0.8c0.1-0.2,0.1-0.4,0.2-0.6c0.1-0.2,0.2-0.3,0.1-0.4c-0.1-0.1-0.2-0.3,0-0.3c0.1,0,0.2,0.1,0.2-0.1
			c0-0.2,0.2-0.3,0.1-0.5c0-0.3,0-0.4,0-0.8c0-0.3,0.2-0.4,0.3-0.4c0.1,0,0.1-0.1,0.2-0.3c0.1-0.2,0.2-0.1,0.3-0.3
			c0.1-0.1,0.4-0.4,0.5-0.5c0.2-0.1,0.2,0.1,0.3,0.3c0.1,0.2,0.2-0.1,0.4,0c0.2,0.1,0.4,0.6,0.5,0.7c0.1,0.2,0.1-0.1,0.3-0.1
			c0.1,0.1,0.1,0.3,0.2,0.5c0.1,0.2,0.2,0.2,0.3,0.4c0.1,0.3,0.1,0.1,0.2,0.1c0.1,0,0.3,0.4,0.4,0.6c0.1,0.3,0.1,1.1,0.2,1.5
			c0.2,0.3,0.2,0.5,0.5,0.4c0.2-0.1,0.1-0.4,0.1-0.6c0-0.2,0.2-0.4,0.2-0.5c0-0.1,0.1-0.4,0.2-0.2c0.1,0.2,0.4,1.1,0.5,1.3
			c0.1,0.2,0.5,0.5,0.5,0.9c0,0.4,0.1,0.8,0.3,1c0.2,0.2,0.3,0.5,0.3,1c0.1,0.5,0,0.9-0.1,1c-0.1,0.1-0.2,0.4-0.1,0.6
			c0.1,0.2,0.4,0.6,0.6,1c0.1,0.3,0.3,0.3,0.5,0.7c0.2,0.3,0.1,1,0.2,1.2c0.1,0.3,0.5,1.3,0.8,1.7C195,251.8,195,251.1,195,251z
			 M147.5,228.7c-0.3,0.1-0.6,0.1-0.9,0.1c-0.3,0-0.5,0-0.5,0c-0.1,0,0-0.2,0.3-0.2c0.3,0,0.3,0,0.5-0.3c0.2-0.2,0.4-0.1,0.5-0.2
			c0.1-0.1,0.2-0.1,0.1,0c-0.1,0.1-0.1,0.2,0,0.2C147.8,228.5,147.8,228.6,147.5,228.7z M155.6,227.9c-0.1,0.2-0.4,0.4-0.7,0.4
			c-0.3,0-0.2-0.2-0.5-0.1c-0.3,0.1-0.5,0.2-0.9,0.1c-0.4-0.1-0.6-0.3-0.9-0.4c-0.3-0.1-1.1-0.3-1.3-0.3c-0.3,0-0.8-0.1-1-0.1
			c-0.2,0-0.4,0-0.5,0.2c-0.2,0.2-0.4,0.3-0.8,0.3c-0.4,0-0.8,0.1-0.9,0.1c-0.2,0-0.2,0-0.2-0.2c-0.1-0.2,0-0.3-0.1-0.3
			c-0.1,0-0.1-0.1-0.1-0.1c0-0.2,0.2-0.5,0.1-0.6c0-0.1,0.3-0.7,0.4-0.9c0.1-0.2,0.5-0.7,0.6-0.8c0.1-0.1,0.3-0.2,0.5-0.3
			c0.2-0.1,0.3-0.2,0.4-0.4c0.1-0.2,0.3-0.3,0.5-0.4c0.2-0.1,0.6,0.1,0.6,0.2c0.1,0.1,0.1,0.2,0,0.3c-0.1,0.1-0.3,0.3-0.1,0.3
			c0.2,0.1,0.4,0,0.5,0c0.1,0,0.1,0.2,0.1,0.3c0,0.1,0,0.4,0.2,0.3c0.2-0.1,0.3-0.2,0.6-0.2c0.3,0,0.7,0.1,0.7-0.1
			c0-0.1,0-0.3-0.1-0.3c-0.2,0-0.4,0.1-0.5,0c-0.1-0.1-0.2-0.1-0.4-0.1c-0.2,0-0.2-0.4,0-0.4c0.2-0.1,0.5,0.1,0.7,0
			c0.2-0.1,0.4-0.2,0.5-0.2c0.1,0,0.3,0,0.5-0.2c0.2-0.1,0.5-0.2,0.6-0.1c0.2,0.1,0.2,0.2,0.1,0.3c-0.1,0.1-0.4,0.1-0.5,0.2
			c-0.1,0.1-0.2,0.1-0.1,0.2c0.1,0.1,0.2,0.2,0.1,0.2c-0.1,0,0,0.2,0,0.2s-0.1,0.1-0.2,0c-0.1,0-0.2-0.1-0.3,0
			c-0.1,0.1-0.3,0.3,0,0.3c0.2,0,0.7,0.1,1,0.4c0.3,0.3,0.4,0.5,0.5,0.7c0.1,0.2,0.6,0.1,0.9,0.4
			C155.5,227.2,155.6,227.6,155.6,227.9z M164.1,231.2c0,0.1-0.2,0.3-0.3,0.1c-0.1-0.1-0.3-0.3-0.4-0.3c-0.1,0.1-0.4,0.2-0.6,0.4
			c-0.1,0.2-0.2,0.3-0.4,0.1c-0.2-0.2-0.6-0.5-0.9-0.6c-0.3-0.1-0.4,0.1-0.6-0.1c-0.2-0.3-0.2-0.6-0.3-0.8c-0.1-0.2,0-0.4,0.1-0.5
			c0.1,0,0.2,0.1,0.3,0.1c0.1-0.1,0-0.2,0.1-0.3c0.1-0.1,0.3-0.2,0.2-0.3c-0.1-0.1-0.2-0.2-0.2-0.4c0.1-0.1,0.3,0,0.2-0.2
			c-0.1-0.2-0.2-0.3-0.3-0.3c-0.2,0-0.1,0-0.3-0.1c-0.2-0.1-0.1-0.3-0.3-0.3c-0.2,0-0.3,0.1-0.3-0.1c-0.1-0.2,0-0.3-0.3-0.4
			c-0.2-0.2-0.3-0.1-0.3-0.4c0-0.3-0.1-0.5,0-0.5c0.1-0.1,0.1-0.2-0.1-0.2c-0.2,0-0.2,0.1-0.3,0.1c0,0-0.1,0-0.1,0
			c-0.1-0.1,0.1-0.2,0-0.3c0-0.1-0.2-0.2-0.3-0.4c-0.1-0.2,0-0.5,0.1-0.7c0.2-0.1,0.5-0.5,0.7-0.7c0.1-0.2,0.3-0.3,0.5-0.5
			c0.2-0.1,0.6-0.4,0.8-0.4c0.2,0,0.4,0.1,0.6,0.1c0.2,0,0.4,0.1,0.4,0.3c0,0.2-0.2,0.3-0.1,0.5c0.1,0.2,0.2,0.2,0.3,0.3
			c0.1,0.1,0.1,0.3,0,0.3c-0.2,0-0.1,0-0.3-0.1c-0.1-0.1-0.2-0.2-0.2-0.2c0,0,0,0.2-0.1,0.2c-0.1,0-0.4,0-0.4,0.1
			c0.1,0.1,0.3,0.1,0.2,0.2c-0.1,0.1-0.2,0.2-0.3,0.2c-0.1,0-0.4,0.2,0,0.4c0.4,0.2,0.5,0.2,0.7,0.5c0.2,0.3,0.1,0.4,0.4,0.4
			c0.3,0,0.6-0.1,0.5,0c-0.1,0.1-0.4,0.1-0.3,0.2c0,0.1-0.1,0.4,0.1,0.7c0.2,0.3,0.3,0.2,0.4,0.2c0.1,0,0.2-0.1,0.1-0.3
			c-0.1-0.2-0.3-0.5-0.1-0.5c0.2,0,0.2,0.2,0.2,0.4c0.1,0.1,0.3,0.4,0.3,0.5c0,0.1,0,0.2-0.2,0.1c-0.2,0-0.5-0.1-0.5,0.1
			c0,0.2,0,0.4,0.1,0.5c0.1,0.1,0.5,0.1,0.4,0.2c-0.1,0.1-0.3,0.1-0.2,0.3c0.1,0.2,0.3,0.1,0.4,0.4c0.2,0.2,0.2,0.3,0.2,0.7
			c0.1,0.4,0.2,0.5,0.3,0.6C163.9,230.9,164.1,231.1,164.1,231.2z"/>
		<path class="st3" d="M147.7,228.5c-0.1-0.1-0.1-0.2,0-0.2c0.1-0.1,0,0-0.1,0c-0.1,0.1-0.3,0-0.5,0.2c-0.2,0.2-0.3,0.2-0.5,0.3
			c-0.3,0-0.4,0.2-0.3,0.2c0,0,0.2,0,0.5,0c0.3,0,0.6-0.1,0.9-0.1C147.8,228.6,147.8,228.5,147.7,228.5z"/>
	</g>
	<g>
		<g>
			<polygon class="st7" points="325.3,176.7 350.3,105.8 361.8,131 381,110.8 392.1,122.1 373.6,142.1 397.5,153.7 			"/>
			<polygon class="st8" points="325.3,176.7 350.3,105.8 361.8,131 381,110.8 386.7,116.6 325.3,176.7 			"/>
		</g>
		
			<rect x="324.6" y="189.5" transform="matrix(0.987 -0.1606 0.1606 0.987 -28.0751 54.9789)" class="st7" width="2.8" height="23.3"/>
		<rect x="294" y="191.9" transform="matrix(0.783 -0.622 0.622 0.783 -53.8883 231.9994)" class="st7" width="23.3" height="2.8"/>
		
			<rect x="301.1" y="159.9" transform="matrix(0.3798 -0.9251 0.9251 0.3798 28.932 386.263)" class="st7" width="2.8" height="23.3"/>
		
			<rect x="318.6" y="146.6" transform="matrix(0.9928 -0.1201 0.1201 0.9928 -16.6961 39.5771)" class="st7" width="2.8" height="23.3"/>
		
			<rect x="340.8" y="177.2" transform="matrix(0.4173 -0.9088 0.9088 0.4173 27.8276 421.0209)" class="st7" width="2.8" height="23.3"/>
	</g>
	<path class="st2" d="M428.7,299.8c0,12-9.9,21.8-21.9,21.8l-5.5,0c-3.7,0-7.2-1-10.3-2.6c-2.2-1.2-4.1-2.7-5.7-4.5
		c-3.6-3.9-5.8-9.1-5.8-14.8l0.1-23.5l0,0l0-1.3l-0.1,0l0.1-16c0-11.7,9.7-21.3,21.4-21.2l2.3,0l0,0l1.9,0l1.4,0l0.4,0l0.5,0
		c4,0,7.6,1.1,10.8,3c0,0,0,0,0,0c1,0.6,2,1.3,2.8,2c4.6,3.9,7.5,9.7,7.5,16.3L428.7,299.8z"/>
	<path class="st7" d="M407.9,249l0,14.5c0,0.3-0.1,0.6-0.1,0.8c0,0.1-0.1,0.1-0.1,0.2c0,0.1,0,0.1-0.1,0.2c0,0,0,0.1,0,0.1
		c0,0.1,0,0.1-0.1,0.2c0,0,0,0.1,0,0.1c0,0.1-0.1,0.1-0.1,0.2c-0.1,0.1-0.1,0.3-0.2,0.4c-0.1,0.1-0.1,0.2-0.2,0.3
		c0,0-0.1,0.1-0.1,0.1c-0.4,0.5-1,0.8-1.7,1c-0.3,0.1-0.7,0.1-1,0.1c-0.3,0-0.5,0-0.8-0.1c-1.6-0.4-2.9-1.8-2.8-3.5l0-14.5
		c0-1.7,1.2-3.2,2.9-3.5c0.2-0.1,0.5-0.1,0.8-0.1c0.4,0,0.7,0.1,1,0.1c0.6,0.2,1.2,0.6,1.7,1c0,0,0.1,0.1,0.1,0.1
		c0.1,0.1,0.1,0.2,0.2,0.3c0.1,0.1,0.2,0.2,0.2,0.4c0,0.1,0.1,0.1,0.1,0.2c0,0,0,0.1,0,0.1c0,0.1,0,0.1,0.1,0.2c0,0,0,0.1,0,0.1
		c0,0.1,0,0.1,0.1,0.2c0,0.1,0.1,0.1,0.1,0.2C407.8,248.4,407.9,248.7,407.9,249z"/>
	<path class="st3" d="M428.7,299.8c0,12-9.9,21.8-21.9,21.8l-5.5,0c-3.7,0-7.2-1-10.3-2.6l29.8-75l0.5-1.3c4.6,3.9,7.5,9.7,7.5,16.3
		L428.7,299.8z"/>
	<path class="st2" d="M346,394.5H199.4c-6.8,0-12.3-5.5-12.3-12.3v-55c0-6.8,5.5-12.3,12.3-12.3H346c6.8,0,12.3,5.5,12.3,12.3v55
		C358.3,389,352.8,394.5,346,394.5z"/>
	<g>
		<rect x="198.8" y="328.3" class="st3" width="12.5" height="11.3"/>
		<rect x="215.7" y="328.3" class="st3" width="12.5" height="11.3"/>
		<rect x="232.6" y="328.3" class="st3" width="12.5" height="11.3"/>
		<rect x="249.5" y="328.3" class="st3" width="12.5" height="11.3"/>
		<rect x="266.4" y="328.3" class="st3" width="12.5" height="11.3"/>
		<rect x="283.3" y="328.3" class="st3" width="12.5" height="11.3"/>
		<rect x="300.1" y="328.3" class="st3" width="12.5" height="11.3"/>
		<rect x="317" y="328.3" class="st3" width="12.5" height="11.3"/>
		<rect x="333.9" y="328.3" class="st3" width="12.5" height="11.3"/>
		<rect x="198.8" y="346.4" class="st3" width="12.5" height="11.3"/>
		<rect x="215.7" y="346.4" class="st3" width="12.5" height="11.3"/>
		<rect x="232.6" y="346.4" class="st3" width="12.5" height="11.3"/>
		<rect x="249.5" y="346.4" class="st3" width="12.5" height="11.3"/>
		<rect x="266.4" y="346.4" class="st3" width="12.5" height="11.3"/>
		<rect x="283.3" y="346.4" class="st3" width="12.5" height="11.3"/>
		<rect x="300.1" y="346.4" class="st3" width="12.5" height="11.3"/>
		<rect x="317" y="346.4" class="st3" width="12.5" height="11.3"/>
		<rect x="333.9" y="346.4" class="st3" width="12.5" height="11.3"/>
		<rect x="198.8" y="364.5" class="st3" width="12.5" height="11.3"/>
		<rect x="215.7" y="364.5" class="st3" width="12.5" height="11.3"/>
		<rect x="232.6" y="364.5" class="st3" width="12.5" height="11.3"/>
		<rect x="249.5" y="364.5" class="st3" width="80.1" height="11.3"/>
		<rect x="333.9" y="364.5" class="st3" width="12.5" height="11.3"/>
	</g>
	<g>
		<rect x="198.8" y="327" class="st9" width="12.5" height="11.3"/>
		<rect x="215.7" y="327" class="st9" width="12.5" height="11.3"/>
		<rect x="232.6" y="327" class="st9" width="12.5" height="11.3"/>
		<rect x="249.5" y="327" class="st9" width="12.5" height="11.3"/>
		<rect x="266.4" y="327" class="st9" width="12.5" height="11.3"/>
		<rect x="283.3" y="327" class="st9" width="12.5" height="11.3"/>
		<rect x="300.1" y="327" class="st9" width="12.5" height="11.3"/>
		<rect x="317" y="327" class="st9" width="12.5" height="11.3"/>
		<rect x="333.9" y="327" class="st9" width="12.5" height="11.3"/>
		<rect x="198.8" y="345.1" class="st9" width="12.5" height="11.3"/>
		<rect x="215.7" y="345.1" class="st9" width="12.5" height="11.3"/>
		<rect x="232.6" y="345.1" class="st9" width="12.5" height="11.3"/>
		<rect x="249.5" y="345.1" class="st9" width="12.5" height="11.3"/>
		<rect x="266.4" y="345.1" class="st9" width="12.5" height="11.3"/>
		<rect x="283.3" y="345.1" class="st9" width="12.5" height="11.3"/>
		<rect x="300.1" y="345.1" class="st9" width="12.5" height="11.3"/>
		<rect x="317" y="345.1" class="st9" width="12.5" height="11.3"/>
		<rect x="333.9" y="345.1" class="st9" width="12.5" height="11.3"/>
		<rect x="198.8" y="363.2" class="st9" width="12.5" height="11.3"/>
		<rect x="215.7" y="363.2" class="st9" width="12.5" height="11.3"/>
		<rect x="232.6" y="363.2" class="st9" width="12.5" height="11.3"/>
		<rect x="249.5" y="363.2" class="st9" width="80.1" height="11.3"/>
		<rect x="333.9" y="363.2" class="st9" width="12.5" height="11.3"/>
	</g>
</g>
</svg>
